<svg width="40" height="40" viewBox="0 0 40 40" fill="none" xmlns="http://www.w3.org/2000/svg">
<path d="M26.9587 21.6667H8.33366C7.86144 21.6667 7.4656 21.5069 7.14616 21.1875C6.82671 20.8681 6.66699 20.4722 6.66699 20C6.66699 19.5278 6.82671 19.1319 7.14616 18.8125C7.4656 18.4931 7.86144 18.3333 8.33366 18.3333H26.9587L18.792 10.1667C18.4587 9.83333 18.2989 9.44444 18.3128 9C18.3267 8.55555 18.5003 8.16667 18.8337 7.83333C19.167 7.52778 19.5559 7.36805 20.0003 7.35417C20.4448 7.34028 20.8337 7.5 21.167 7.83333L32.167 18.8333C32.3337 19 32.4517 19.1806 32.5212 19.375C32.5906 19.5694 32.6253 19.7778 32.6253 20C32.6253 20.2222 32.5906 20.4306 32.5212 20.625C32.4517 20.8194 32.3337 21 32.167 21.1667L21.167 32.1667C20.8614 32.4722 20.4795 32.625 20.0212 32.625C19.5628 32.625 19.167 32.4722 18.8337 32.1667C18.5003 31.8333 18.3337 31.4375 18.3337 30.9792C18.3337 30.5208 18.5003 30.125 18.8337 29.7917L26.9587 21.6667Z" fill="currentColor"/>
</svg>
