<svg width="20" height="20" viewBox="0 0 20 20" fill="none" xmlns="http://www.w3.org/2000/svg">
<path d="M7.9583 12.6251L15.0208 5.56262C15.1875 5.39596 15.3854 5.31262 15.6146 5.31262C15.8437 5.31262 16.0416 5.39596 16.2083 5.56262C16.375 5.72929 16.4583 5.92721 16.4583 6.15637C16.4583 6.38554 16.375 6.58346 16.2083 6.75012L8.54164 14.4168C8.37497 14.5835 8.18052 14.6668 7.9583 14.6668C7.73608 14.6668 7.54164 14.5835 7.37497 14.4168L3.79164 10.8335C3.62497 10.6668 3.54511 10.4689 3.55205 10.2397C3.559 10.0105 3.6458 9.81262 3.81247 9.64596C3.97914 9.47929 4.17705 9.39596 4.40622 9.39596C4.63539 9.39596 4.8333 9.47929 4.99997 9.64596L7.9583 12.6251Z" fill="currentColor"/>
</svg>
