<svg width="24" height="25" viewBox="0 0 24 25" fill="none" xmlns="http://www.w3.org/2000/svg">
<path d="M12.5998 12.5L8.6998 8.60005C8.51647 8.41672 8.4248 8.18338 8.4248 7.90005C8.4248 7.61672 8.51647 7.38338 8.6998 7.20005C8.88314 7.01672 9.11647 6.92505 9.3998 6.92505C9.68314 6.92505 9.91647 7.01672 10.0998 7.20005L14.6998 11.8C14.7998 11.9 14.8706 12.0084 14.9123 12.125C14.954 12.2417 14.9748 12.3667 14.9748 12.5C14.9748 12.6334 14.954 12.7584 14.9123 12.875C14.8706 12.9917 14.7998 13.1 14.6998 13.2L10.0998 17.8C9.91647 17.9834 9.68314 18.075 9.3998 18.075C9.11647 18.075 8.88314 17.9834 8.6998 17.8C8.51647 17.6167 8.4248 17.3834 8.4248 17.1C8.4248 16.8167 8.51647 16.5834 8.6998 16.4L12.5998 12.5Z" fill="currentColor"/>
</svg>
