<svg width="25" height="24" viewBox="0 0 25 24" fill="none" xmlns="http://www.w3.org/2000/svg">
<path d="M12.5 14.95C12.3667 14.95 12.2417 14.9292 12.125 14.8875C12.0083 14.8459 11.9 14.775 11.8 14.675L7.19999 10.075C7.01665 9.89169 6.92499 9.65836 6.92499 9.37502C6.92499 9.09169 7.01665 8.85836 7.19999 8.67502C7.38332 8.49169 7.61665 8.40002 7.89999 8.40002C8.18332 8.40002 8.41665 8.49169 8.59999 8.67502L12.5 12.575L16.4 8.67502C16.5833 8.49169 16.8167 8.40002 17.1 8.40002C17.3833 8.40002 17.6167 8.49169 17.8 8.67502C17.9833 8.85836 18.075 9.09169 18.075 9.37502C18.075 9.65836 17.9833 9.89169 17.8 10.075L13.2 14.675C13.1 14.775 12.9917 14.8459 12.875 14.8875C12.7583 14.9292 12.6333 14.95 12.5 14.95Z" fill="currentColor"/>
</svg>
