<svg width="20" height="20" viewBox="0 0 20 20" fill="none" xmlns="http://www.w3.org/2000/svg">
<path d="M1.875 4.33606H18.125V15.6637H1.875V4.33606Z" fill="#0B55B1"/>
<path d="M18.125 4.33606H15.8025L10 8.3809L4.1975 4.33606H1.875V5.95512L7.6775 9.99997L1.875 14.0448V15.6639H4.1975L10 11.619L15.8025 15.6639H18.125V14.0448L12.3225 9.99997L18.125 5.95512V4.33606Z" fill="#F0F0F0"/>
<path d="M18.125 4.33606H18.058L10 9.95325L1.94203 4.33606H1.875V5.07137L9.43906 10.3442L1.875 15.6172V15.6639H2.92984L10 10.7353L17.0702 15.6639H18.125V15.6172L10.5609 10.3442L18.125 5.07137V4.33606Z" fill="#D60A2E"/>
<path d="M18.125 8.54168H11.4583V4.33606H8.54172V8.54168H1.875V11.4582H8.54172V15.6639H11.4583V11.4582H18.125V8.54168Z" fill="#F0F0F0"/>
<path d="M9.32297 15.6641V10.677H1.875V9.32297H9.32297V4.33594H10.677V9.32297H18.125V10.677H10.677V15.6641H9.32297Z" fill="#D60A2E"/>
</svg>
