<svg viewBox="0 0 105 105" fill="none" xmlns="http://www.w3.org/2000/svg">
<path d="M74.1819 75.4124C83.4287 68.6983 89.4413 57.8013 89.4413 45.5C89.4413 25.0979 72.9021 8.55868 52.5 8.55868C32.0979 8.55868 15.5587 25.0979 15.5587 45.5C15.5587 57.8013 21.5714 68.6983 30.8181 75.4124H28.4013V78.0532C18.4499 70.6741 12 58.8403 12 45.5C12 23.1325 30.1325 5 52.5 5C74.8675 5 93 23.1325 93 45.5C93 58.8959 86.4962 70.7728 76.474 78.1453V75.4124H74.1819Z" fill="currentColor"/>
<path d="M25.8563 86.6745V80.4124C25.8563 77.651 28.0948 75.4124 30.8563 75.4124H74.026C76.7875 75.4124 79.026 77.651 79.026 80.4124V86.6745" stroke="currentColor" stroke-width="4"/>
<path d="M20.1849 89.8442V95.1063C20.1849 96.7631 21.5281 98.1063 23.1849 98.1063H81.9416C83.5985 98.1063 84.9416 96.7631 84.9416 95.1063V89.8442C84.9416 88.1874 83.5985 86.8442 81.9416 86.8442H23.1849C21.5281 86.8442 20.1849 88.1874 20.1849 89.8442Z" stroke="currentColor" stroke-width="4"/>
<path d="M62.6792 8.2486L59.6471 10.1978C57.7379 11.8089 57.6941 12.8885 59.1458 14.6976C59.4678 15.0989 59.8725 15.4229 60.247 15.7757C61.0014 16.4862 61.3538 17.3246 61.5963 19.0775C62.2346 24.152 62.8827 26.7106 65.9116 27.6715C66.3484 27.8101 66.8095 27.8658 67.2671 27.8428C68.9878 27.7566 69.8492 27.0546 70.5843 24.3836C71.4482 20.9992 72.5447 20.1236 75.7821 20.7018L82.8209 22.0013M31.0588 13.7713C33.6647 15.2062 35.3218 15.3673 38.4225 15.1791H42.5375C44.316 15.2856 45.1789 15.8298 46.3276 18.2112L47.627 22.0013C48.2223 23.3879 48.6329 24.1565 49.9011 25.4665C51.517 26.7537 51.932 27.7292 50.9371 29.6846C50.6358 30.2769 50.2024 30.7968 49.6772 31.204C47.5515 32.8522 46.0387 32.6183 43.4038 30.5561C41.4093 29.3558 40.2295 29.1786 39.11 29.9975C38.0741 30.7552 37.6598 32.0952 37.6424 33.3785C37.633 34.0751 37.6743 34.7546 37.7727 35.6457C38.0035 41.7961 37.6645 42.7927 33.4412 44.5253C29.2179 46.2579 29.6983 49.7231 33.4412 52.647C37.1841 55.5709 38.9639 56.1912 40.3717 56.4371C41.7794 56.683 44.3316 57.2865 46.869 56.4371C49.1067 55.5952 50.4294 55.2669 52.4369 55.1621C52.8388 55.1411 53.2446 55.1627 53.6411 55.2312C57.6984 55.933 58.7414 57.6281 57.9145 62.1764C57.0481 66.9411 56.5532 69.1509 54.8824 75.3876M15.0321 37.7031C17.0037 38.6711 17.9594 39.7101 19.0584 42.4956C19.1925 42.8357 19.2926 43.1897 19.3664 43.5478C19.793 45.6192 20.0741 47.0074 20.5548 49.3983C21.4313 51.9879 22.2821 53.14 24.7781 54.3796C28.1417 55.4974 29.8762 56.517 32.5749 59.3609C34.1458 60.9557 34.9652 61.9281 36.1484 64.0173C37.0452 66.0889 36.7981 67.1577 37.123 69.2152C37.4479 71.2726 39.2681 73.9689 40.8048 74.8462M90.4011 37.5948C87.6879 36.0205 86.1219 35.567 83.1457 36.512C79.7554 37.6346 77.8934 37.649 75.5665 36.0714C74.9748 35.6703 74.3654 35.2808 73.6839 35.0652C72.0587 34.5509 70.9211 34.6002 69.1765 35.4291C66.8721 36.1561 65.99 36.7436 65.0513 37.6923C64.7643 37.9823 64.5127 38.3066 64.3036 38.657C63.0231 40.8032 63.0032 42.1371 63.974 44.0318C64.1819 44.4376 64.4543 44.8067 64.7537 45.1505L67.2273 47.9906C67.9468 48.9758 67.975 49.4933 67.5522 50.3729L65.8195 55.1376C65.2299 57.7241 65.3346 59.1283 67.5522 61.4184C70.4308 63.9125 71.9157 65.3296 74.1578 67.9157C76.2347 70.6451 76.7854 72.0405 77.7313 74.5213" stroke="currentColor" stroke-width="3"/>
</svg>
