<svg viewBox="0 0 105 105" fill="none" xmlns="http://www.w3.org/2000/svg">
<path d="M17.1363 57.1375C17.174 57.1375 17.2118 57.1375 17.2495 57.1375C18.013 57.1375 18.6544 56.5529 18.7201 55.7796C19.5404 45.1232 25.4428 35.3626 34.5319 29.6663C35.2198 29.2321 35.4276 28.327 34.9934 27.6385C34.5598 26.95 33.6547 26.7427 32.9667 27.1764C28.1772 30.1755 24.0756 34.3153 21.1055 39.1344C18.06 44.0858 16.2219 49.7629 15.7784 55.5532C15.7221 56.3642 16.3253 57.0719 17.1363 57.1375Z" fill="black"/>
<path d="M70.473 29.6663C79.5621 35.362 85.4732 45.1232 86.2843 55.7796C86.3411 56.5529 86.9914 57.1375 87.7553 57.1375C87.7931 57.1375 87.8308 57.1375 87.8685 57.1375C88.679 57.0719 89.2828 56.3642 89.2259 55.5532C88.7829 49.7536 86.9443 44.0765 83.8988 39.1344C80.9386 34.3153 76.837 30.1755 72.0382 27.1671C71.3496 26.7334 70.4353 26.9407 70.0109 27.6292C69.5865 28.3177 69.7845 29.2321 70.473 29.6663Z" fill="black"/>
<mask id="mask0_3753_2132" style="mask-type:luminance" maskUnits="userSpaceOnUse" x="31" y="86" width="42" height="10">
<path d="M31.92 86.66H72.94V95.2471H31.92V86.66Z" fill="white"/>
</mask>
<g mask="url(#mask0_3753_2132)">
<path d="M70.6896 87.0046C65.2591 90.4658 58.9701 92.2951 52.5022 92.2951C46.0343 92.2951 39.7458 90.4658 34.3148 87.0046C33.6268 86.5709 32.7217 86.7689 32.2782 87.4574C31.8445 88.1459 32.0425 89.051 32.731 89.4945C38.6329 93.257 45.4688 95.2471 52.4929 95.2471C59.517 95.2471 66.3529 93.257 72.2548 89.4945C72.9433 89.0603 73.1413 88.1459 72.7076 87.4574C72.2832 86.7689 71.3781 86.5709 70.6896 87.0046Z" fill="black"/>
</g>
<path d="M43.6587 68.7187H48.9382L51.4555 71.2365C51.7388 71.5192 52.1254 71.6702 52.5022 71.6702C52.8796 71.6702 53.2564 71.5291 53.5489 71.2365L56.0662 68.7187H61.3463C65.4101 68.7187 68.7099 65.4177 68.7099 61.3534V51.036C68.7099 46.9717 65.4101 43.6707 61.3463 43.6707H43.668C39.6042 43.6707 36.3043 46.9717 36.3043 51.036V61.3534C36.3043 65.4177 39.6042 68.7187 43.6587 68.7187ZM39.246 51.036C39.246 48.603 41.2256 46.6129 43.668 46.6129H61.3463C63.7788 46.6129 65.7683 48.5937 65.7683 51.036V61.3534C65.7683 63.7864 63.7881 65.7759 61.3463 65.7759H55.4531C55.0671 65.7759 54.6897 65.9269 54.407 66.2102L52.5022 68.1056L50.598 66.2003C50.3246 65.9269 49.9472 65.7667 49.5513 65.7667H43.6587C41.2256 65.7667 39.2367 63.7864 39.2367 61.3435V51.036H39.246Z" fill="black"/>
<mask id="mask1_3753_2132" style="mask-type:luminance" maskUnits="userSpaceOnUse" x="5" y="59" width="30" height="31">
<path d="M5.35718 59.78H34.86V89.46H5.35718V59.78Z" fill="white"/>
</mask>
<g mask="url(#mask1_3753_2132)">
<path d="M20.0872 59.8724C11.9694 59.8724 5.35986 66.4836 5.35986 74.6129C5.35986 82.7417 11.9694 89.3435 20.0872 89.3435C28.205 89.3435 34.8146 82.7324 34.8146 74.6129C34.8146 66.4929 28.2149 59.8724 20.0872 59.8724ZM20.0872 86.4008C17.1078 86.4008 14.3833 85.2885 12.2992 83.4493C14.4396 81.5631 17.2117 80.5066 20.0872 80.5066C22.9632 80.5066 25.7348 81.5631 27.8753 83.4493C25.801 85.2885 23.0759 86.4008 20.0872 86.4008ZM17.1456 74.6129C17.1456 72.9909 18.4657 71.6702 20.0872 71.6702C21.7092 71.6702 23.0288 72.9909 23.0288 74.6129C23.0288 76.2349 21.7092 77.5551 20.0872 77.5551C18.4657 77.5551 17.1456 76.2349 17.1456 74.6129ZM29.8271 81.2427C28.3182 79.9127 26.5644 78.9223 24.6788 78.2999C25.4898 77.291 25.9803 76.0085 25.9803 74.6129C25.9803 71.359 23.34 68.7187 20.0872 68.7187C16.8344 68.7187 14.1946 71.359 14.1946 74.6129C14.1946 76.0085 14.6846 77.291 15.4956 78.2999C13.61 78.9223 11.8562 79.922 10.3479 81.2427C9.05619 79.3565 8.3015 77.0645 8.3015 74.6129C8.3015 68.1149 13.5909 62.8245 20.0872 62.8245C26.5835 62.8245 31.8729 68.1149 31.8729 74.6129C31.8729 77.0738 31.1188 79.3565 29.8271 81.2427Z" fill="black"/>
</g>
<mask id="mask2_3753_2132" style="mask-type:luminance" maskUnits="userSpaceOnUse" x="37" y="9" width="31" height="31">
<path d="M37.66 9.77704H67.34V39.34H37.66V9.77704Z" fill="white"/>
</mask>
<g mask="url(#mask2_3753_2132)">
<path d="M52.5022 39.2476C60.6299 39.2476 67.2296 32.637 67.2296 24.517C67.2296 16.3975 60.6299 9.77704 52.5022 9.77704C44.3751 9.77704 37.7749 16.3877 37.7749 24.5077C37.7749 32.6277 44.3751 39.2476 52.5022 39.2476ZM52.5022 36.2961C49.5229 36.2961 46.7983 35.1832 44.7142 33.3441C46.8547 31.4579 49.6268 30.4019 52.5022 30.4019C55.3783 30.4019 58.1498 31.4579 60.2903 33.3441C58.2067 35.1832 55.4816 36.2961 52.5022 36.2961ZM49.5606 24.5077C49.5606 22.8856 50.8808 21.5655 52.5022 21.5655C54.1243 21.5655 55.4439 22.8856 55.4439 24.5077C55.4439 26.1297 54.1243 27.4499 52.5022 27.4499C50.8808 27.4499 49.5606 26.139 49.5606 24.5077ZM52.5022 12.7192C58.9986 12.7192 64.2879 18.0097 64.2879 24.5077C64.2879 26.9692 63.5338 29.2513 62.2421 31.1374C60.7333 29.8074 58.9794 28.8176 57.0938 28.1952C57.9048 27.1857 58.3954 25.9033 58.3954 24.5077C58.3954 21.2543 55.7551 18.6134 52.5022 18.6134C49.2494 18.6134 46.6097 21.2543 46.6097 24.5077C46.6097 25.9033 47.0997 27.1857 47.9107 28.1952C46.0251 28.8176 44.2712 29.8173 42.7629 31.1374C41.4712 29.2513 40.7165 26.9599 40.7165 24.5077C40.7171 18.0097 46.0059 12.7192 52.5022 12.7192Z" fill="black"/>
</g>
<mask id="mask3_3753_2132" style="mask-type:luminance" maskUnits="userSpaceOnUse" x="70" y="59" width="30" height="31">
<path d="M70.14 59.78H99.6472V89.46H70.14V59.78Z" fill="white"/>
</mask>
<g mask="url(#mask3_3753_2132)">
<path d="M84.9172 59.8724C76.7901 59.8724 70.1898 66.4836 70.1898 74.6031C70.1898 82.7231 76.7994 89.3337 84.9172 89.3337C93.035 89.3337 99.6445 82.7417 99.6445 74.6129C99.6445 66.4836 93.035 59.8724 84.9172 59.8724ZM84.9172 86.4008C81.9378 86.4008 79.2133 85.2885 77.1297 83.4493C79.2696 81.5631 82.0417 80.5066 84.9172 80.5066C87.7932 80.5066 90.5647 81.5631 92.7052 83.4493C90.6216 85.2885 87.8965 86.4008 84.9172 86.4008ZM81.9662 74.6129C81.9662 72.9909 83.2864 71.6702 84.9079 71.6702C86.5294 71.6702 87.8495 72.9909 87.8495 74.6129C87.8495 76.2349 86.5294 77.5551 84.9079 77.5551C83.2864 77.5551 81.9662 76.2349 81.9662 74.6129ZM94.6472 81.2427C93.1389 79.9127 91.3851 78.9223 89.4994 78.2999C90.3104 77.291 90.8004 76.0085 90.8004 74.6129C90.8004 71.359 88.1607 68.7187 84.9079 68.7187C81.6551 68.7187 79.0153 71.359 79.0153 74.6129C79.0153 76.0085 79.5053 77.291 80.3163 78.2999C78.4307 78.9223 76.6769 79.922 75.168 81.2427C73.8769 79.3565 73.1222 77.0645 73.1222 74.6129C73.1222 68.1149 78.4115 62.8245 84.9079 62.8245C91.4042 62.8245 96.6936 68.1149 96.6936 74.6129C96.7029 77.0738 95.9389 79.3565 94.6472 81.2427Z" fill="black"/>
</g>
<path d="M48.0802 59.8724C48.0802 59.9692 48.0709 60.0649 48.0523 60.1595C48.0332 60.2541 48.0053 60.3465 47.9686 60.4357C47.9314 60.5248 47.886 60.6096 47.8325 60.69C47.7789 60.7704 47.7176 60.8447 47.6498 60.9131C47.5814 60.9809 47.5071 61.0422 47.4267 61.0958C47.3463 61.1494 47.2615 61.1947 47.1724 61.2319C47.0832 61.2686 46.9914 61.2965 46.8968 61.3156C46.8016 61.3342 46.7059 61.3435 46.6096 61.3435C46.5128 61.3435 46.4171 61.3342 46.3225 61.3156C46.2279 61.2965 46.136 61.2686 46.0469 61.2319C45.9572 61.1947 45.8725 61.1494 45.7926 61.0958C45.7122 61.0422 45.6378 60.9809 45.5695 60.9131C45.5011 60.8447 45.4404 60.7704 45.3868 60.69C45.3327 60.6096 45.2878 60.5248 45.2507 60.4357C45.2135 60.3465 45.1856 60.2541 45.167 60.1595C45.1484 60.0649 45.1385 59.9692 45.1385 59.8724C45.1385 59.7761 45.1484 59.6804 45.167 59.5853C45.1856 59.4907 45.2135 59.3988 45.2507 59.3097C45.2878 59.2205 45.3327 59.1358 45.3868 59.0554C45.4404 58.975 45.5011 58.9006 45.5695 58.8322C45.6378 58.7639 45.7122 58.7032 45.7926 58.649C45.8725 58.5954 45.9572 58.5501 46.0469 58.5134C46.136 58.4762 46.2279 58.4483 46.3225 58.4297C46.4171 58.4106 46.5128 58.4013 46.6096 58.4013C46.7059 58.4013 46.8016 58.4106 46.8968 58.4297C46.9914 58.4483 47.0832 58.4762 47.1724 58.5134C47.2615 58.5501 47.3463 58.5954 47.4267 58.649C47.5071 58.7032 47.5814 58.7639 47.6498 58.8322C47.7176 58.9006 47.7789 58.975 47.8325 59.0554C47.886 59.1358 47.9314 59.2205 47.9686 59.3097C48.0053 59.3988 48.0332 59.4907 48.0523 59.5853C48.0709 59.6804 48.0802 59.7761 48.0802 59.8724Z" fill="black"/>
<path d="M53.9733 59.8724C53.9733 59.9692 53.9634 60.0649 53.9448 60.1595C53.9262 60.2541 53.8983 60.3465 53.8611 60.4357C53.824 60.5248 53.7791 60.6096 53.725 60.69C53.6714 60.7704 53.6107 60.8447 53.5423 60.9131C53.474 60.9809 53.3996 61.0422 53.3192 61.0958C53.2394 61.1494 53.1546 61.1947 53.0649 61.2319C52.9758 61.2686 52.8839 61.2965 52.7893 61.3156C52.6947 61.3342 52.599 61.3435 52.5022 61.3435C52.4059 61.3435 52.3102 61.3342 52.2151 61.3156C52.1204 61.2965 52.0286 61.2686 51.9394 61.2319C51.8503 61.1947 51.7655 61.1494 51.6851 61.0958C51.6047 61.0422 51.5304 60.9809 51.462 60.9131C51.3942 60.8447 51.3329 60.7704 51.2794 60.69C51.2258 60.6096 51.1804 60.5248 51.1432 60.4357C51.1065 60.3465 51.0786 60.2541 51.0595 60.1595C51.0409 60.0649 51.0316 59.9692 51.0316 59.8724C51.0316 59.7761 51.0409 59.6804 51.0595 59.5853C51.0786 59.4907 51.1065 59.3988 51.1432 59.3097C51.1804 59.2205 51.2258 59.1358 51.2794 59.0554C51.3329 58.975 51.3942 58.9006 51.462 58.8322C51.5304 58.7639 51.6047 58.7032 51.6851 58.649C51.7655 58.5954 51.8503 58.5501 51.9394 58.5134C52.0286 58.4762 52.1204 58.4483 52.2151 58.4297C52.3102 58.4106 52.4059 58.4013 52.5022 58.4013C52.599 58.4013 52.6947 58.4106 52.7893 58.4297C52.8839 58.4483 52.9758 58.4762 53.0649 58.5134C53.1546 58.5501 53.2394 58.5954 53.3192 58.649C53.3996 58.7032 53.474 58.7639 53.5423 58.8322C53.6107 58.9006 53.6714 58.975 53.725 59.0554C53.7791 59.1358 53.824 59.2205 53.8611 59.3097C53.8983 59.3988 53.9262 59.4907 53.9448 59.5853C53.9634 59.6804 53.9733 59.7761 53.9733 59.8724Z" fill="black"/>
<path d="M59.8658 59.8724C59.8658 59.9692 59.8565 60.0649 59.8374 60.1595C59.8188 60.2541 59.7909 60.3465 59.7537 60.4357C59.7171 60.5248 59.6717 60.6096 59.6181 60.69C59.5645 60.7704 59.5033 60.8447 59.4349 60.9131C59.3665 60.9809 59.2927 61.0422 59.2123 61.0958C59.1319 61.1494 59.0472 61.1947 58.958 61.2319C58.8689 61.2686 58.7765 61.2965 58.6819 61.3156C58.5872 61.3342 58.4915 61.3435 58.3953 61.3435C58.2985 61.3435 58.2028 61.3342 58.1082 61.3156C58.0136 61.2965 57.9211 61.2686 57.832 61.2319C57.7429 61.1947 57.6581 61.1494 57.5777 61.0958C57.4973 61.0422 57.4235 60.9809 57.3551 60.9131C57.2868 60.8447 57.2255 60.7704 57.1719 60.69C57.1183 60.6096 57.0729 60.5248 57.0363 60.4357C56.9991 60.3465 56.9712 60.2541 56.9526 60.1595C56.9335 60.0649 56.9242 59.9692 56.9242 59.8724C56.9242 59.7761 56.9335 59.6804 56.9526 59.5853C56.9712 59.4907 56.9991 59.3988 57.0363 59.3097C57.0729 59.2205 57.1183 59.1358 57.1719 59.0554C57.2255 58.975 57.2868 58.9006 57.3551 58.8322C57.4235 58.7639 57.4973 58.7032 57.5777 58.649C57.6581 58.5954 57.7429 58.5501 57.832 58.5134C57.9211 58.4762 58.0136 58.4483 58.1082 58.4297C58.2028 58.4106 58.2985 58.4013 58.3953 58.4013C58.4915 58.4013 58.5872 58.4106 58.6819 58.4297C58.7765 58.4483 58.8689 58.4762 58.958 58.5134C59.0472 58.5501 59.1319 58.5954 59.2123 58.649C59.2927 58.7032 59.3665 58.7639 59.4349 58.8322C59.5033 58.9006 59.5645 58.975 59.6181 59.0554C59.6717 59.1358 59.7171 59.2205 59.7537 59.3097C59.7909 59.3988 59.8188 59.4907 59.8374 59.5853C59.8565 59.6804 59.8658 59.7761 59.8658 59.8724Z" fill="black"/>
</svg>
