<svg viewBox="0 0 104 104" fill="none" xmlns="http://www.w3.org/2000/svg">
<mask id="mask0_3753_2135" style="mask-type:luminance" maskUnits="userSpaceOnUse" x="39" y="8" width="26" height="26">
<path d="M39.52 8.8855H64.48V33.8347H39.52V8.8855Z" fill="white"/>
</mask>
<g mask="url(#mask0_3753_2135)">
<path d="M52 33.7274C58.8689 33.7274 64.4226 28.1742 64.4226 21.3065C64.4226 14.4387 58.8689 8.8855 52 8.8855C45.1311 8.8855 39.5774 14.4387 39.5774 21.3065C39.5774 28.1742 45.1311 33.7274 52 33.7274ZM52 11.8083C57.2612 11.8083 61.4997 16.0458 61.4997 21.3065C61.4997 26.5671 57.2612 30.8046 52 30.8046C46.7388 30.8046 42.5002 26.5671 42.5002 21.3065C42.5002 16.0458 46.7388 11.8083 52 11.8083Z" fill="black"/>
</g>
<mask id="mask1_3753_2135" style="mask-type:luminance" maskUnits="userSpaceOnUse" x="5" y="42" width="94" height="54">
<path d="M5.19995 42.432H98.7999V95.1015H5.19995V42.432Z" fill="white"/>
</mask>
<g mask="url(#mask1_3753_2135)">
<path d="M97.7454 54.0394L85.0303 43.2255C84.5184 42.7873 83.7877 42.4954 83.1301 42.4954C82.6919 42.4954 82.3263 42.5679 81.8881 42.7873C80.8649 43.2987 80.2073 44.3219 80.2073 45.4177V50.8246C68.9536 52.286 59.3807 57.8386 53.0963 66.3872C53.0232 66.4603 52.5844 66.9717 52 67.8486C45.7156 58.3499 35.7771 52.286 23.7927 50.7514V45.4177C23.7927 44.2487 23.1351 43.2255 22.1119 42.7873C21.7468 42.5679 21.3081 42.4954 20.8699 42.4954C20.2123 42.4954 19.4816 42.7142 18.9697 43.2255L6.2546 54.0394C5.59702 54.6238 5.23193 55.4277 5.23193 56.2315V56.9617C5.23193 57.8386 5.59702 58.6424 6.2546 59.1538L18.9697 70.0402C19.4816 70.4789 20.2123 70.7709 20.8699 70.7709C21.3081 70.7709 21.6737 70.6978 22.1119 70.4789C23.1351 69.9671 23.7927 68.9444 23.7927 67.8486V63.3918C36.8734 65.949 44.5461 76.4703 44.5461 92.1786C44.5461 92.4711 44.6924 93.4212 44.6924 93.6401C44.6924 94.4439 45.3499 95.1015 46.1538 95.1015C46.3731 95.1015 56.5305 95.1015 56.5305 95.1015C58.1381 95.1015 59.4539 93.7863 59.4539 92.1786C59.4539 76.5429 67.1266 65.949 80.2073 63.3918V67.8486C80.2073 69.0175 80.8649 70.0402 81.8881 70.4789C82.2531 70.6247 82.6919 70.7709 83.1301 70.7709C83.7877 70.7709 84.5184 70.5521 85.0303 70.0402L97.7454 59.1538C98.4029 58.5693 98.768 57.7655 98.768 56.9617V56.2315C98.768 55.4277 98.4029 54.6238 97.7454 54.0394ZM20.8699 60.0307V67.8486L8.15477 57.0348V56.3041L20.8699 45.4177V53.4549C33.2199 54.3313 43.9616 60.4689 50.3192 70.6978C48.9309 73.255 47.3232 76.8354 46.2269 81.4385C42.7196 68.2868 32.8542 61.1265 20.8699 60.0307ZM95.8452 57.0348L83.1301 67.9217V60.0307C68.2229 61.419 56.5305 72.1592 56.5305 92.1786H47.6152C47.9808 82.3154 51.1961 75.0089 53.3883 71.2822C59.6727 60.6883 70.5613 54.4044 83.1301 53.4549V45.4177L95.8452 56.3041V57.0348Z" fill="black"/>
</g>
<path d="M51.3424 55.7196C50.173 55.7196 49.4423 56.3041 49.4423 57.5466C49.4423 58.7156 50.0998 59.3 51.3424 59.3C52.5845 59.3 53.1695 58.7156 53.1695 57.5466C53.1695 56.3041 52.5845 55.7196 51.3424 55.7196Z" fill="black"/>
<path d="M57.8462 45.0526C57.8462 41.9835 55.6536 40.3032 51.9269 40.3032C48.2734 40.3032 46.1538 42.1297 46.1538 45.2714C46.1538 46.0752 46.8845 46.8059 47.6884 46.8059C48.5653 46.8059 49.2229 46.1483 49.2229 45.2714C49.2229 43.7374 50.3192 43.0067 51.8538 43.0067C53.6808 43.0067 54.704 43.7374 54.704 45.1257C54.704 48.048 49.2229 48.2673 49.2229 51.701C49.2229 52.4317 49.5154 53.3086 50.2461 54.0393C50.5386 54.3313 50.9037 54.4776 51.3424 54.4776C52.0731 54.4776 52.877 53.9662 52.877 53.0161C52.877 52.7242 52.8039 52.4317 52.6576 52.2128C52.4382 51.9203 52.3656 51.7741 52.3656 51.5553C52.4382 49.8013 57.8462 49.5094 57.8462 45.0526Z" fill="black"/>
<path d="M31.5391 43.2987C31.5391 37.2347 36.8003 33.6543 42.2078 33.0698C41.3308 32.3391 40.527 31.4622 39.7963 30.5126C33.8043 31.9741 28.6157 36.504 28.6157 43.2987V48.7056C29.6389 48.925 30.589 49.2169 31.5391 49.5094V43.2987Z" fill="black"/>
<path d="M61.7922 33.0698C67.1997 33.6543 72.4609 37.1616 72.4609 43.2987V49.5094C73.411 49.2169 74.3611 48.925 75.3843 48.7056V43.2987C75.3843 36.504 70.1957 31.974 64.2037 30.5858C63.5462 31.4622 62.7423 32.3391 61.7922 33.0698Z" fill="black"/>
</svg>
