<svg viewBox="0 0 105 104" fill="none" xmlns="http://www.w3.org/2000/svg">
<mask id="mask0_3753_2136" style="mask-type:luminance" maskUnits="userSpaceOnUse" x="13" y="5" width="80" height="93">
<path d="M13.16 5.1778H92.12V97.9458H13.16V5.1778Z" fill="white"/>
</mask>
<g mask="url(#mask0_3753_2136)">
<path d="M68.0936 97.9149H23.3505C23.2931 97.9149 23.2357 97.9117 23.1782 97.9057C23.1214 97.8992 23.0645 97.89 23.0082 97.8776C22.9518 97.8651 22.8966 97.8499 22.8424 97.831C22.7878 97.8126 22.7347 97.7914 22.6822 97.7671C22.6303 97.7427 22.5799 97.7156 22.5307 97.6858C22.4815 97.656 22.4339 97.6241 22.3885 97.5889C22.3432 97.5542 22.2999 97.5168 22.2584 97.4767C22.2168 97.4372 22.178 97.3955 22.1414 97.3516C22.1042 97.3077 22.0703 97.2617 22.0385 97.214C22.0068 97.1664 21.9778 97.1171 21.9516 97.0661C21.9253 97.0158 21.9024 96.9632 21.8816 96.9101C21.8614 96.8565 21.8439 96.8024 21.8296 96.7471C21.8149 96.6918 21.8039 96.6361 21.7957 96.5797C21.7875 96.5229 21.7821 96.466 21.7804 96.4091C21.7782 96.3522 21.7799 96.2953 21.7842 96.2385C21.7886 96.1816 21.7957 96.1247 21.8067 96.0689C23.1049 89.1995 25.7546 70.3273 22.5668 65.0119C20.9552 63.1475 19.5082 61.165 18.2257 59.0639C12.4469 49.7451 11.6452 37.7184 16.1334 27.6781C19.0936 21.0562 23.6846 15.457 29.4066 11.4801C30.1246 10.9758 30.8607 10.4997 31.616 10.0512C32.3707 9.60268 33.1417 9.18397 33.9292 8.79451C34.7167 8.40505 35.5179 8.04593 36.3333 7.71714C37.1481 7.38889 37.975 7.09151 38.8134 6.8261C39.6512 6.56068 40.4989 6.32722 41.3547 6.12626C42.2111 5.9253 43.0741 5.75685 43.9431 5.62143C44.8126 5.48601 45.686 5.38418 46.5631 5.31485C47.4403 5.24605 48.3186 5.21085 49.1985 5.20868C59.0204 5.20868 68.2664 9.36489 75.2079 16.9141C82.1106 24.4221 85.9157 34.3958 85.9256 44.9984C85.9256 45.1035 85.9152 45.2075 85.8938 45.3099C85.8167 45.714 85.7992 46.1208 85.8419 46.5297C85.884 46.9387 85.9846 47.3336 86.1432 47.7133C86.438 48.438 87.4278 49.5306 88.3827 50.5863C89.6263 51.9496 90.9109 53.3731 91.5256 54.8302C92.8124 57.8587 91.8597 61.4521 89.2648 63.3588C88.7146 63.7639 88.0485 64.0245 87.3453 64.2991C85.6248 64.9729 85.283 65.273 85.3065 65.7405C85.4164 65.8493 85.5695 65.9896 85.6992 66.1045C86.7973 67.1212 88.6342 68.8215 88.2235 71.0889C87.984 72.4111 87.0253 73.5562 85.3103 74.5593C85.8999 75.4531 86.3554 76.6085 86.0568 77.8196C85.8014 78.8537 85.0746 79.6581 83.912 80.2252C84.56 82.1432 85.1769 85.3217 83.3224 87.6845C81.3406 90.2162 77.4063 90.8337 71.3032 89.5678C70.8936 89.7174 70.5228 89.9324 70.1898 90.2124C69.8567 90.4919 69.5822 90.8202 69.3662 91.1961C68.7772 92.3179 68.8357 93.8719 69.5625 95.8154C69.5844 95.8745 69.603 95.9341 69.6178 95.9947C69.632 96.0559 69.6429 96.1171 69.6506 96.1794C69.6577 96.2417 69.661 96.304 69.6604 96.3663C69.6604 96.4291 69.656 96.4914 69.6478 96.5537C69.6402 96.6155 69.6281 96.6772 69.6128 96.7379C69.5975 96.7986 69.5784 96.8581 69.556 96.9161C69.533 96.9746 69.5073 97.0315 69.4778 97.0867C69.4482 97.142 69.4154 97.1956 69.3793 97.2471C69.3432 97.298 69.3038 97.3473 69.2623 97.3939C69.2202 97.4404 69.1753 97.4848 69.1278 97.526C69.0807 97.5672 69.031 97.6056 68.979 97.6414C68.9271 97.6766 68.8729 97.7091 68.8171 97.7378C68.7608 97.7671 68.7034 97.7925 68.6443 97.8147C68.5853 97.8364 68.5251 97.8554 68.4638 97.87C68.4026 97.8851 68.3408 97.8965 68.2779 97.9036C68.2156 97.9111 68.1527 97.9149 68.0892 97.9149H68.0936ZM25.2186 94.7987H66.0133C65.6299 92.8514 65.8323 91.1354 66.622 89.6865C67.9974 87.1547 70.5879 86.5058 70.8788 86.4397C71.108 86.3894 71.3371 86.3894 71.5663 86.4397C76.3864 87.4895 79.6808 87.256 80.8396 85.7816C82.0909 84.1924 80.9692 81.068 80.4311 79.9988C80.4049 79.9468 80.3813 79.8931 80.3611 79.8379C80.3409 79.7832 80.3239 79.7274 80.3097 79.6705C80.296 79.6136 80.2851 79.5562 80.2774 79.4983C80.2703 79.4403 80.266 79.3818 80.2654 79.3233C80.2643 79.2648 80.2671 79.2063 80.2731 79.1484C80.2785 79.0899 80.2878 79.0324 80.3004 78.975C80.3124 78.9181 80.3283 78.8618 80.3469 78.806C80.366 78.7508 80.3879 78.6966 80.4125 78.6435C80.4377 78.5904 80.4656 78.539 80.4962 78.4891C80.5268 78.4393 80.5607 78.3911 80.5968 78.3451C80.6329 78.2985 80.6717 78.2546 80.7133 78.2129C80.7543 78.1712 80.7975 78.1316 80.8435 78.0948C80.8894 78.058 80.937 78.0233 80.9867 77.9919C81.036 77.9599 81.0874 77.9312 81.1404 77.9052C81.1935 77.8792 81.2476 77.8565 81.3028 77.8364C81.3586 77.8169 81.4149 77.8001 81.4724 77.7866C82.6509 77.506 82.985 77.1556 83.0025 77.0835C83.0813 76.7721 82.4349 75.8019 81.771 75.231C81.7206 75.1882 81.6731 75.1416 81.6288 75.0923C81.5845 75.0431 81.5429 74.9916 81.5052 74.9369C81.4674 74.8827 81.4335 74.8259 81.4029 74.7673C81.3723 74.7083 81.3455 74.6482 81.3231 74.5859C81.3001 74.5241 81.2815 74.4608 81.2667 74.3963C81.252 74.3318 81.2416 74.2669 81.2356 74.2008C81.229 74.1352 81.2274 74.0691 81.229 74.0031C81.2312 73.937 81.2378 73.8714 81.2481 73.8064C81.2591 73.7409 81.2738 73.677 81.2924 73.6136C81.3116 73.5502 81.334 73.4879 81.3608 73.4278C81.3876 73.3671 81.4182 73.3086 81.4527 73.2518C81.4866 73.1954 81.5243 73.1407 81.5659 73.0893C81.6069 73.0373 81.6512 72.988 81.6988 72.9419C81.7463 72.8953 81.7967 72.8526 81.8497 72.8125C81.9033 72.7724 81.9585 72.7361 82.016 72.7031C82.0739 72.67 82.1335 72.6413 82.1953 72.6159C84.8274 71.5271 85.1025 70.6951 85.1299 70.5396C85.2376 69.9454 84.1006 68.8919 83.5581 68.3854C82.9079 67.7815 82.4387 67.3471 82.2894 66.6716C81.9553 65.1582 82.3698 63.8398 83.4914 62.8583C84.2986 62.1508 85.3103 61.7538 86.2045 61.405C86.6206 61.262 87.0193 61.0811 87.4005 60.8617C88.8267 59.8103 89.3649 57.7455 88.6403 56.0473C88.2257 55.0734 87.1194 53.8525 86.0508 52.6722C84.8624 51.3592 83.7392 50.1188 83.236 48.8876C82.9735 48.2501 82.8035 47.5881 82.7274 46.9035C82.6509 46.2183 82.6706 45.5358 82.7865 44.8565C82.6979 24.7006 67.661 8.32705 49.1969 8.32705C36.26 8.32489 24.692 16.2246 19.0056 28.9423C14.9314 38.057 15.6664 48.9737 20.9032 57.4319C22.1102 59.4111 23.4741 61.2777 24.9944 63.0316C25.0589 63.0988 25.1174 63.1708 25.1694 63.2477C27.1573 66.3737 27.7036 72.9858 26.7898 82.9184C26.3342 87.815 25.6293 92.3645 25.2186 94.7987Z" fill="black"/>
</g>
<path d="M35.3271 34.0335C35.2237 34.0335 35.1215 34.0232 35.0203 34.0037C34.9191 33.9836 34.8207 33.9538 34.7255 33.9148C34.6304 33.8758 34.5396 33.8276 34.4537 33.7707C34.3679 33.7139 34.2886 33.6494 34.2158 33.5768C34.1426 33.5048 34.0775 33.4262 34.0201 33.3407C33.9632 33.2556 33.9145 33.1662 33.8751 33.0715C33.8358 32.9772 33.8057 32.8797 33.7854 32.7795C33.7658 32.6787 33.7554 32.5775 33.7554 32.4751V19.7611C33.7554 19.6592 33.7658 19.5574 33.7854 19.4572C33.8057 19.357 33.8358 19.2595 33.8751 19.1652C33.9145 19.0705 33.9632 18.9805 34.0201 18.8955C34.0775 18.8105 34.1426 18.7319 34.2158 18.6593C34.2886 18.5873 34.3679 18.5228 34.4537 18.466C34.5396 18.4091 34.6304 18.3609 34.7255 18.3219C34.8207 18.2829 34.9191 18.2531 35.0203 18.233C35.1215 18.213 35.2237 18.2032 35.3271 18.2032C35.4299 18.2032 35.5322 18.213 35.6333 18.233C35.7345 18.2531 35.8329 18.2829 35.9281 18.3219C36.0238 18.3609 36.114 18.4091 36.1999 18.466C36.2858 18.5228 36.3651 18.5873 36.4378 18.6593C36.5111 18.7319 36.5762 18.8105 36.6336 18.8955C36.691 18.9805 36.7391 19.0705 36.7785 19.1652C36.8184 19.2595 36.8479 19.357 36.8682 19.4572C36.8884 19.5574 36.8983 19.6592 36.8983 19.7611V32.4751C36.8983 32.5775 36.8884 32.6787 36.8682 32.7795C36.8479 32.8797 36.8184 32.9772 36.7785 33.0715C36.7391 33.1662 36.691 33.2556 36.6336 33.3407C36.5762 33.4262 36.5111 33.5048 36.4378 33.5768C36.3651 33.6494 36.2858 33.7139 36.1999 33.7707C36.114 33.8276 36.0238 33.8758 35.9281 33.9148C35.8329 33.9538 35.7345 33.9836 35.6333 34.0037C35.5322 34.0232 35.4299 34.0335 35.3271 34.0335Z" fill="black"/>
<path d="M35.3271 54.4836C35.2237 54.4836 35.1215 54.4733 35.0203 54.4532C34.9191 54.4332 34.8207 54.4039 34.7255 54.3649C34.6304 54.3254 34.5396 54.2777 34.4537 54.2208C34.3679 54.164 34.2886 54.0995 34.2158 54.0269C34.1426 53.9549 34.0775 53.8758 34.0201 53.7908C33.9632 53.7057 33.9145 53.6158 33.8751 53.5216C33.8358 53.4268 33.8057 53.3298 33.7854 53.2291C33.7658 53.1288 33.7554 53.0276 33.7554 52.9252V42.9926C33.7554 42.8903 33.7658 42.789 33.7854 42.6882C33.8057 42.588 33.8358 42.4905 33.8751 42.3963C33.9145 42.3015 33.9632 42.2121 34.0201 42.1271C34.0775 42.0415 34.1426 41.9629 34.2158 41.8909C34.2886 41.8183 34.3679 41.7538 34.4537 41.697C34.5396 41.6401 34.6304 41.5919 34.7255 41.5529C34.8207 41.5139 34.9191 41.4841 35.0203 41.4641C35.1215 41.4446 35.2237 41.4343 35.3271 41.4343C35.4299 41.4343 35.5322 41.4446 35.6333 41.4641C35.7345 41.4841 35.8329 41.5139 35.9281 41.5529C36.0238 41.5919 36.114 41.6401 36.1999 41.697C36.2858 41.7538 36.3651 41.8183 36.4378 41.8909C36.5111 41.9629 36.5762 42.0415 36.6336 42.1271C36.691 42.2121 36.7391 42.3015 36.7785 42.3963C36.8184 42.4905 36.8479 42.588 36.8682 42.6882C36.8884 42.789 36.8983 42.8903 36.8983 42.9926V52.9252C36.8983 53.0276 36.8884 53.1288 36.8682 53.2291C36.8479 53.3298 36.8184 53.4268 36.7785 53.5216C36.7391 53.6158 36.691 53.7057 36.6336 53.7908C36.5762 53.8758 36.5111 53.9549 36.4378 54.0269C36.3651 54.0995 36.2858 54.164 36.1999 54.2208C36.114 54.2777 36.0238 54.3254 35.9281 54.3649C35.8329 54.4039 35.7345 54.4332 35.6333 54.4532C35.5322 54.4733 35.4299 54.4836 35.3271 54.4836Z" fill="black"/>
<path d="M50.1162 54.4835C50.0128 54.4835 49.9105 54.4733 49.8094 54.4532C49.7082 54.4332 49.6097 54.4039 49.5146 54.3649C49.4194 54.3254 49.3287 54.2777 49.2428 54.2208C49.1569 54.164 49.0776 54.0995 49.0049 54.0269C48.9316 53.9549 48.8665 53.8758 48.8097 53.7908C48.7522 53.7057 48.7036 53.6158 48.6642 53.5215C48.6248 53.4268 48.5947 53.3298 48.5745 53.229C48.5548 53.1288 48.5444 53.0275 48.5444 52.9252V36.1758C48.5444 36.0734 48.5548 35.9721 48.5745 35.8719C48.5947 35.7717 48.6248 35.6742 48.6642 35.5794C48.7036 35.4851 48.7522 35.3952 48.8097 35.3102C48.8665 35.2251 48.9316 35.1466 49.0049 35.074C49.0776 35.0014 49.1569 34.937 49.2428 34.8801C49.3287 34.8232 49.4194 34.7755 49.5146 34.7365C49.6097 34.697 49.7082 34.6678 49.8094 34.6477C49.9105 34.6277 50.0128 34.6179 50.1162 34.6179C50.219 34.6179 50.3212 34.6277 50.4224 34.6477C50.5236 34.6678 50.622 34.697 50.7172 34.7365C50.8129 34.7755 50.9031 34.8232 50.989 34.8801C51.0748 34.937 51.1541 35.0014 51.2274 35.074C51.3001 35.1466 51.3652 35.2251 51.4226 35.3102C51.4801 35.3952 51.5282 35.4851 51.5681 35.5794C51.6075 35.6742 51.637 35.7717 51.6572 35.8719C51.6775 35.9721 51.6873 36.0734 51.6873 36.1758V52.9252C51.6873 53.0275 51.6775 53.1288 51.6572 53.229C51.637 53.3298 51.6075 53.4268 51.5681 53.5215C51.5282 53.6158 51.4801 53.7057 51.4226 53.7908C51.3652 53.8758 51.3001 53.9549 51.2274 54.0269C51.1541 54.0995 51.0748 54.164 50.989 54.2208C50.9031 54.2777 50.8129 54.3254 50.7172 54.3649C50.622 54.4039 50.5236 54.4332 50.4224 54.4532C50.3212 54.4733 50.219 54.4835 50.1162 54.4835Z" fill="black"/>
<path d="M50.1162 27.2166C50.0128 27.2166 49.9105 27.2068 49.8094 27.1868C49.7082 27.1667 49.6097 27.1375 49.5146 27.0979C49.4194 27.0589 49.3287 27.0107 49.2428 26.9544C49.1569 26.8975 49.0776 26.8325 49.0049 26.7605C48.9316 26.6879 48.8665 26.6094 48.8097 26.5243C48.7522 26.4393 48.7036 26.3494 48.6642 26.2551C48.6248 26.1603 48.5947 26.0628 48.5745 25.9626C48.5548 25.8624 48.5444 25.7611 48.5444 25.6587V19.2801C48.5444 19.1777 48.5548 19.0764 48.5745 18.9762C48.5947 18.876 48.6248 18.7785 48.6642 18.6837C48.7036 18.5894 48.7522 18.4995 48.8097 18.4145C48.8665 18.3294 48.9316 18.2509 49.0049 18.1783C49.0776 18.1063 49.1569 18.0413 49.2428 17.9849C49.3287 17.9281 49.4194 17.8799 49.5146 17.8409C49.6097 17.8013 49.7082 17.7721 49.8094 17.752C49.9105 17.732 50.0128 17.7222 50.1162 17.7222C50.219 17.7222 50.3212 17.732 50.4224 17.752C50.5236 17.7721 50.622 17.8013 50.7172 17.8409C50.8129 17.8799 50.9031 17.9281 50.989 17.9849C51.0748 18.0413 51.1541 18.1063 51.2274 18.1783C51.3001 18.2509 51.3652 18.3294 51.4226 18.4145C51.4801 18.4995 51.5282 18.5894 51.5681 18.6837C51.6075 18.7785 51.637 18.876 51.6572 18.9762C51.6775 19.0764 51.6873 19.1777 51.6873 19.2801V25.6587C51.6873 25.7611 51.6775 25.8624 51.6572 25.9626C51.637 26.0628 51.6075 26.1603 51.5681 26.2551C51.5282 26.3494 51.4801 26.4393 51.4226 26.5243C51.3652 26.6094 51.3001 26.6879 51.2274 26.7605C51.1541 26.8325 51.0748 26.8975 50.989 26.9544C50.9031 27.0107 50.8129 27.0589 50.7172 27.0979C50.622 27.1375 50.5236 27.1667 50.4224 27.1868C50.3212 27.2068 50.219 27.2166 50.1162 27.2166Z" fill="black"/>
<path d="M64.8856 54.4835C64.7823 54.4835 64.68 54.4733 64.5788 54.4532C64.4777 54.4332 64.3798 54.4039 64.2841 54.3649C64.1889 54.3254 64.0981 54.2777 64.0128 54.2208C63.927 54.164 63.8477 54.0995 63.7744 54.0269C63.7016 53.9549 63.6366 53.8758 63.5791 53.7908C63.5217 53.7057 63.473 53.6158 63.4337 53.5215C63.3943 53.4268 63.3648 53.3298 63.3445 53.229C63.3243 53.1288 63.3145 53.0275 63.3145 52.9252V45.1485C63.3145 45.0461 63.3243 44.9448 63.3445 44.8446C63.3648 44.7444 63.3943 44.6469 63.4337 44.5521C63.473 44.4578 63.5217 44.3679 63.5791 44.2829C63.6366 44.1978 63.7016 44.1188 63.7744 44.0467C63.8477 43.9741 63.927 43.9097 64.0128 43.8528C64.0981 43.7959 64.1889 43.7483 64.2841 43.7087C64.3798 43.6697 64.4777 43.6405 64.5788 43.6204C64.68 43.6004 64.7823 43.5901 64.8856 43.5901C64.989 43.5901 65.0913 43.6004 65.1924 43.6204C65.2936 43.6405 65.3915 43.6697 65.4872 43.7087C65.5823 43.7483 65.6731 43.7959 65.7584 43.8528C65.8443 43.9097 65.9236 43.9741 65.9969 44.0467C66.0696 44.1188 66.1347 44.1978 66.1921 44.2829C66.2495 44.3679 66.2982 44.4578 66.3376 44.5521C66.377 44.6469 66.4065 44.7438 66.4267 44.8446C66.447 44.9448 66.4573 45.0461 66.4573 45.1485V52.9252C66.4573 53.0275 66.447 53.1288 66.4267 53.229C66.4065 53.3298 66.377 53.4268 66.3376 53.5215C66.2982 53.6158 66.2495 53.7057 66.1921 53.7908C66.1347 53.8758 66.0696 53.9549 65.9969 54.0269C65.9236 54.0995 65.8443 54.164 65.7584 54.2208C65.6731 54.2777 65.5823 54.3254 65.4872 54.3649C65.3915 54.4039 65.2936 54.4332 65.1924 54.4532C65.0913 54.4733 64.989 54.4835 64.8856 54.4835Z" fill="black"/>
<path d="M64.8856 36.1758C64.7823 36.1758 64.68 36.166 64.5788 36.146C64.4777 36.1259 64.3798 36.0961 64.2841 36.0571C64.1889 36.0181 64.0981 35.9699 64.0128 35.9131C63.927 35.8562 63.8477 35.7917 63.7744 35.7197C63.7016 35.6471 63.6366 35.5686 63.5791 35.4835C63.5217 35.3985 63.473 35.3086 63.4337 35.2138C63.3943 35.1195 63.3648 35.022 63.3445 34.9218C63.3243 34.8211 63.3145 34.7198 63.3145 34.6179V24.2699C63.3145 24.1676 63.3243 24.0663 63.3445 23.9661C63.3648 23.8658 63.3943 23.7683 63.4337 23.6736C63.473 23.5793 63.5217 23.4894 63.5791 23.4043C63.6366 23.3193 63.7016 23.2408 63.7744 23.1682C63.8477 23.0961 63.927 23.0311 64.0128 22.9743C64.0981 22.9179 64.1889 22.8697 64.2841 22.8307C64.3798 22.7912 64.4777 22.7619 64.5788 22.7419C64.68 22.7218 64.7823 22.7121 64.8856 22.7121C64.989 22.7121 65.0913 22.7218 65.1924 22.7419C65.2936 22.7619 65.3915 22.7912 65.4872 22.8307C65.5823 22.8697 65.6731 22.9179 65.7584 22.9743C65.8443 23.0311 65.9236 23.0961 65.9969 23.1682C66.0696 23.2408 66.1347 23.3193 66.1921 23.4043C66.2495 23.4894 66.2982 23.5793 66.3376 23.6736C66.377 23.7683 66.4065 23.8658 66.4267 23.9661C66.447 24.0663 66.4573 24.1676 66.4573 24.2699V34.6179C66.4573 34.7198 66.447 34.8211 66.4267 34.9218C66.4065 35.022 66.377 35.1195 66.3376 35.2138C66.2982 35.3086 66.2495 35.3985 66.1921 35.4835C66.1347 35.5686 66.0696 35.6471 65.9969 35.7197C65.9236 35.7917 65.8443 35.8562 65.7584 35.9131C65.6731 35.9699 65.5823 36.0181 65.4872 36.0571C65.3915 36.0961 65.2936 36.1259 65.1924 36.146C65.0913 36.166 64.989 36.1758 64.8856 36.1758Z" fill="black"/>
<path d="M35.2854 44.5504C35.0601 44.5504 34.8359 44.5396 34.6117 44.5174C34.3874 44.4957 34.1649 44.4632 33.9445 44.4194C33.7235 44.376 33.5053 44.3219 33.2899 44.2569C33.0744 44.1924 32.8628 44.1171 32.6544 44.0315C32.4466 43.9459 32.2431 43.8506 32.0446 43.7455C31.8461 43.6404 31.6531 43.5256 31.466 43.4016C31.2785 43.2775 31.098 43.1448 30.9241 43.0034C30.7502 42.8615 30.5834 42.712 30.4242 42.5539C30.2651 42.3962 30.1136 42.231 29.9709 42.0582C29.8281 41.8854 29.6942 41.7067 29.5689 41.5209C29.4442 41.3351 29.3283 41.1439 29.2222 40.9473C29.1161 40.7501 29.0199 40.5486 28.934 40.3422C28.8476 40.1364 28.7716 39.9262 28.7065 39.7128C28.6409 39.4989 28.5867 39.2827 28.5424 39.0639C28.4987 38.8445 28.4659 38.6241 28.4435 38.402C28.4216 38.1799 28.4106 37.9573 28.4106 37.7341C28.4106 37.5104 28.4216 37.2878 28.4435 37.0657C28.4659 36.8436 28.4987 36.6232 28.5424 36.4038C28.5867 36.1849 28.6409 35.9688 28.7065 35.7549C28.7716 35.5414 28.8476 35.3313 28.934 35.1254C29.0199 34.9191 29.1161 34.7176 29.2222 34.5204C29.3283 34.3238 29.4442 34.1326 29.5689 33.9468C29.6942 33.761 29.8281 33.5822 29.9709 33.4094C30.1136 33.2367 30.2651 33.0714 30.4242 32.9138C30.5834 32.7557 30.7502 32.6062 30.9241 32.4648C31.098 32.3229 31.2785 32.1902 31.466 32.0661C31.6531 31.9421 31.8461 31.8272 32.0446 31.7222C32.2431 31.6171 32.4466 31.5217 32.6544 31.4362C32.8628 31.3506 33.0744 31.2753 33.2899 31.2108C33.5053 31.1458 33.7235 31.0917 33.9445 31.0483C34.1649 31.0044 34.3874 30.9719 34.6117 30.9503C34.8359 30.9281 35.0601 30.9172 35.2854 30.9172C35.5107 30.9172 35.7355 30.9281 35.9592 30.9503C36.1834 30.9719 36.406 31.0044 36.6269 31.0483C36.8478 31.0917 37.0655 31.1458 37.281 31.2108C37.4964 31.2753 37.7086 31.3506 37.9164 31.4362C38.1242 31.5217 38.3277 31.6171 38.5262 31.7222C38.7247 31.8272 38.9178 31.9421 39.1053 32.0661C39.2924 32.1902 39.4728 32.3229 39.6467 32.4648C39.8212 32.6062 39.9874 32.7557 40.1471 32.9138C40.3063 33.0714 40.4572 33.2367 40.5999 33.4094C40.7427 33.5822 40.8767 33.761 41.0019 33.9468C41.1271 34.1326 41.2425 34.3238 41.3486 34.5204C41.4547 34.7176 41.551 34.9191 41.6374 35.1254C41.7232 35.3313 41.7992 35.5414 41.8643 35.7549C41.9299 35.9688 41.9846 36.1849 42.0284 36.4038C42.0721 36.6232 42.1055 36.8436 42.1274 37.0657C42.1498 37.2878 42.1607 37.5104 42.1607 37.7341C42.1607 37.9573 42.1498 38.1799 42.1274 38.402C42.1055 38.6241 42.0721 38.8445 42.0284 39.0639C41.9846 39.2827 41.9299 39.4989 41.8643 39.7128C41.7992 39.9262 41.7232 40.1364 41.6374 40.3422C41.551 40.5486 41.4547 40.7501 41.3486 40.9473C41.2425 41.1439 41.1271 41.3351 41.0019 41.5209C40.8767 41.7067 40.7427 41.8854 40.5999 42.0582C40.4572 42.231 40.3063 42.3962 40.1471 42.5539C39.9874 42.712 39.8212 42.8615 39.6467 43.0034C39.4728 43.1448 39.2924 43.2775 39.1053 43.4016C38.9178 43.5256 38.7247 43.6404 38.5262 43.7455C38.3277 43.8506 38.1242 43.9459 37.9164 44.0315C37.7086 44.1171 37.4964 44.1924 37.281 44.2569C37.0655 44.3219 36.8478 44.376 36.6269 44.4194C36.406 44.4632 36.1834 44.4957 35.9592 44.5174C35.7355 44.5396 35.5107 44.5504 35.2854 44.5504ZM35.2854 34.0334C35.1635 34.0334 35.0415 34.0394 34.9196 34.0513C34.7981 34.0632 34.6773 34.0806 34.5575 34.1044C34.4378 34.1282 34.3191 34.1575 34.2021 34.1927C34.085 34.2279 33.9702 34.2685 33.8575 34.3151C33.7443 34.3617 33.6338 34.4132 33.5261 34.4706C33.4184 34.5274 33.3134 34.5897 33.2122 34.6569C33.1105 34.7246 33.0126 34.7967 32.918 34.8736C32.8234 34.9505 32.7331 35.0317 32.6462 35.1173C32.5598 35.2029 32.4783 35.2928 32.4006 35.3865C32.323 35.4802 32.2503 35.5772 32.1824 35.6779C32.1146 35.7787 32.0517 35.8827 31.9938 35.9894C31.9363 36.0961 31.8844 36.2055 31.8374 36.3177C31.7909 36.4298 31.7493 36.5435 31.7138 36.6594C31.6788 36.7754 31.6487 36.8929 31.6252 37.0121C31.6011 37.1307 31.5831 37.2504 31.571 37.3712C31.5596 37.492 31.5535 37.6128 31.5535 37.7341C31.5535 37.8549 31.5596 37.9757 31.571 38.0965C31.5831 38.2173 31.6011 38.337 31.6252 38.4556C31.6487 38.5748 31.6788 38.6923 31.7138 38.8082C31.7493 38.9242 31.7909 39.0379 31.8374 39.15C31.8844 39.2622 31.9363 39.3716 31.9938 39.4783C32.0517 39.585 32.1146 39.689 32.1824 39.7897C32.2503 39.8905 32.323 39.9874 32.4006 40.0812C32.4783 40.1749 32.5598 40.2648 32.6462 40.3504C32.7331 40.4359 32.8234 40.5172 32.918 40.5941C33.0126 40.671 33.1105 40.7431 33.2122 40.8108C33.3134 40.8779 33.4184 40.9402 33.5261 40.9971C33.6338 41.0545 33.7443 41.106 33.8575 41.1526C33.9702 41.1992 34.085 41.2398 34.2021 41.275C34.3191 41.3102 34.4378 41.3394 34.5575 41.3633C34.6773 41.3871 34.7981 41.4044 34.9196 41.4164C35.0415 41.4283 35.1635 41.4342 35.2854 41.4342C35.4079 41.4342 35.5299 41.4283 35.6513 41.4164C35.7732 41.4044 35.8935 41.3871 36.0138 41.3633C36.1336 41.3394 36.2517 41.3102 36.3688 41.275C36.4858 41.2398 36.6006 41.1992 36.7138 41.1526C36.8265 41.106 36.937 41.0545 37.0447 40.9971C37.1524 40.9402 37.2574 40.8779 37.3592 40.8108C37.4609 40.7431 37.5588 40.671 37.6534 40.5941C37.7474 40.5172 37.8382 40.4359 37.9246 40.3504C38.011 40.2648 38.0931 40.1749 38.1707 40.0812C38.2478 39.9874 38.3206 39.8905 38.3889 39.7897C38.4567 39.689 38.5196 39.585 38.5771 39.4783C38.6345 39.3716 38.687 39.2622 38.7335 39.15C38.7805 39.0379 38.8215 38.9242 38.8571 38.8082C38.8926 38.6923 38.9221 38.5748 38.9462 38.4556C38.9697 38.337 38.9878 38.2173 38.9998 38.0965C39.0118 37.9757 39.0178 37.8549 39.0178 37.7341C39.0178 37.6128 39.0118 37.492 38.9998 37.3712C38.9878 37.2504 38.9697 37.1307 38.9462 37.0121C38.9221 36.8929 38.8926 36.7754 38.8571 36.6594C38.8215 36.5435 38.7805 36.4298 38.7335 36.3177C38.687 36.2055 38.6345 36.0961 38.5771 35.9894C38.5196 35.8827 38.4567 35.7787 38.3889 35.6779C38.3206 35.5772 38.2478 35.4802 38.1707 35.3865C38.0931 35.2928 38.011 35.2029 37.9246 35.1173C37.8382 35.0317 37.7474 34.9505 37.6534 34.8736C37.5588 34.7967 37.4609 34.7246 37.3592 34.6569C37.2574 34.5897 37.1524 34.5274 37.0447 34.4706C36.937 34.4132 36.8265 34.3617 36.7138 34.3151C36.6006 34.2685 36.4858 34.2279 36.3688 34.1927C36.2517 34.1575 36.1336 34.1282 36.0138 34.1044C35.8935 34.0806 35.7732 34.0632 35.6513 34.0513C35.5299 34.0394 35.4079 34.0334 35.2854 34.0334Z" fill="black"/>
<path d="M50.0177 37.7342C49.7924 37.7342 49.5682 37.7228 49.344 37.7011C49.1197 37.6794 48.8972 37.6464 48.6768 37.6031C48.4558 37.5592 48.2376 37.505 48.0222 37.4406C47.8067 37.3756 47.5951 37.3003 47.3867 37.2152C47.1789 37.1297 46.9754 37.0343 46.7769 36.9292C46.5784 36.8236 46.3854 36.7093 46.1983 36.5853C46.0108 36.4612 45.8303 36.328 45.6564 36.1866C45.4825 36.0447 45.3157 35.8952 45.1565 35.7376C44.9974 35.5794 44.8459 35.4142 44.7032 35.2419C44.5604 35.0692 44.4265 34.8899 44.3012 34.7046C44.1765 34.5188 44.0606 34.3276 43.9545 34.1304C43.8484 33.9338 43.7522 33.7323 43.6663 33.5259C43.5799 33.3196 43.5039 33.1094 43.4388 32.896C43.3732 32.6826 43.319 32.4659 43.2747 32.2471C43.231 32.0282 43.1982 31.8078 43.1758 31.5852C43.1539 31.3631 43.1429 31.1404 43.1429 30.9173C43.1429 30.6941 43.1539 30.4715 43.1758 30.2489C43.1982 30.0268 43.231 29.8063 43.2747 29.5875C43.319 29.3687 43.3732 29.152 43.4388 28.9386C43.5039 28.7246 43.5799 28.515 43.6663 28.3086C43.7522 28.1022 43.8484 27.9007 43.9545 27.7041C44.0606 27.5069 44.1765 27.3157 44.3012 27.1299C44.4265 26.9447 44.5604 26.7654 44.7032 26.5926C44.8459 26.4204 44.9974 26.2552 45.1565 26.097C45.3157 25.9394 45.4825 25.7893 45.6564 25.6479C45.8303 25.506 46.0108 25.3733 46.1983 25.2493C46.3854 25.1252 46.5784 25.0109 46.7769 24.9053C46.9754 24.8002 47.1789 24.7049 47.3867 24.6193C47.5951 24.5343 47.8067 24.459 48.0222 24.394C48.2376 24.3295 48.4558 24.2754 48.6768 24.2315C48.8972 24.1882 49.1197 24.1551 49.344 24.1334C49.5682 24.1118 49.7924 24.1004 50.0177 24.1004C50.243 24.1004 50.4678 24.1118 50.6915 24.1334C50.9157 24.1551 51.1383 24.1882 51.3592 24.2315C51.5801 24.2754 51.7983 24.3295 52.0138 24.394C52.2293 24.459 52.4409 24.5343 52.6487 24.6193C52.8565 24.7049 53.06 24.8002 53.2585 24.9053C53.457 25.0109 53.6501 25.1252 53.8376 25.2493C54.0247 25.3733 54.2051 25.506 54.379 25.6479C54.5535 25.7893 54.7197 25.9394 54.8794 26.097C55.0386 26.2552 55.1895 26.4204 55.3322 26.5926C55.475 26.7654 55.609 26.9447 55.7342 27.1299C55.8594 27.3157 55.9748 27.5069 56.0809 27.7041C56.187 27.9007 56.2833 28.1022 56.3697 28.3086C56.4555 28.515 56.5315 28.7246 56.5966 28.9386C56.6622 29.152 56.7169 29.3687 56.7607 29.5875C56.8044 29.8063 56.8378 30.0268 56.8597 30.2489C56.8821 30.4715 56.893 30.6941 56.893 30.9173C56.893 31.1404 56.8821 31.3631 56.8597 31.5852C56.8378 31.8078 56.8044 32.0282 56.7607 32.2471C56.7169 32.4659 56.6622 32.6826 56.5966 32.896C56.5315 33.1094 56.4555 33.3196 56.3697 33.5259C56.2833 33.7323 56.187 33.9338 56.0809 34.1304C55.9748 34.3276 55.8594 34.5188 55.7342 34.7046C55.609 34.8899 55.475 35.0692 55.3322 35.2414C55.1895 35.4142 55.0386 35.5794 54.8794 35.7376C54.7197 35.8952 54.5535 36.0447 54.379 36.1866C54.2051 36.328 54.0247 36.4612 53.8376 36.5853C53.6501 36.7093 53.457 36.8236 53.2585 36.9292C53.06 37.0343 52.8565 37.1297 52.6487 37.2152C52.4409 37.3003 52.2293 37.3756 52.0133 37.4406C51.7983 37.505 51.5801 37.5592 51.3592 37.6031C51.1383 37.6464 50.9157 37.6794 50.6915 37.7011C50.4678 37.7228 50.243 37.7342 50.0177 37.7342ZM50.0177 27.2166C49.8958 27.2166 49.7738 27.2226 49.6519 27.2345C49.5304 27.2464 49.4096 27.2643 49.2898 27.2881C49.1701 27.3114 49.0514 27.3412 48.9344 27.3759C48.8173 27.4111 48.7025 27.4522 48.5898 27.4983C48.4766 27.5449 48.3661 27.5969 48.2584 27.6537C48.1507 27.7106 48.0457 27.7729 47.9445 27.8406C47.8428 27.9078 47.7449 27.9798 47.6503 28.0567C47.5557 28.1337 47.4654 28.2149 47.3785 28.3005C47.2921 28.3861 47.2106 28.476 47.1329 28.5697C47.0553 28.6634 46.9826 28.7604 46.9147 28.8611C46.8469 28.9624 46.784 29.0659 46.7261 29.1731C46.6686 29.2798 46.6167 29.3892 46.5697 29.5014C46.5232 29.6129 46.4816 29.7272 46.4461 29.8432C46.4111 29.9591 46.381 30.0766 46.3575 30.1952C46.3334 30.3144 46.3154 30.4341 46.3039 30.5544C46.2919 30.6752 46.2858 30.7959 46.2858 30.9173C46.2858 31.0386 46.2919 31.1594 46.3033 31.2802C46.3154 31.4004 46.3334 31.5202 46.3575 31.6393C46.381 31.7579 46.4111 31.8755 46.4461 31.9914C46.4816 32.1073 46.5232 32.2216 46.5697 32.3332C46.6167 32.4453 46.6686 32.5547 46.7261 32.6614C46.784 32.7687 46.8469 32.8722 46.9147 32.9729C46.9826 33.0737 47.0553 33.1712 47.1329 33.2649C47.2106 33.3586 47.2921 33.4479 47.3785 33.5341C47.4654 33.6197 47.5557 33.7009 47.6503 33.7778C47.7449 33.8547 47.8428 33.9268 47.9445 33.9939C48.0462 34.0617 48.1507 34.1234 48.2584 34.1808C48.3661 34.2377 48.4766 34.2897 48.5898 34.3363C48.7025 34.3823 48.8173 34.4229 48.9344 34.4582C49.0514 34.4934 49.1701 34.5232 49.2898 34.5464C49.4096 34.5703 49.5304 34.5882 49.6519 34.6001C49.7738 34.612 49.8958 34.6179 50.0177 34.6179C50.1402 34.6179 50.2622 34.612 50.3836 34.6001C50.5055 34.5882 50.6258 34.5703 50.7461 34.5464C50.8659 34.5232 50.984 34.4934 51.1011 34.4582C51.2181 34.4229 51.3329 34.3823 51.4461 34.3363C51.5588 34.2897 51.6693 34.2377 51.777 34.1808C51.8847 34.1234 51.9897 34.0617 52.0915 33.9939C52.1932 33.9268 52.2911 33.8547 52.3857 33.7778C52.4797 33.7009 52.5705 33.6197 52.6569 33.5341C52.7433 33.4479 52.8254 33.3586 52.903 33.2649C52.9801 33.1712 53.0529 33.0737 53.1212 32.9729C53.189 32.8722 53.2519 32.7687 53.3094 32.6614C53.3668 32.5547 53.4193 32.4453 53.4658 32.3332C53.5128 32.2216 53.5538 32.1073 53.5894 31.9914C53.6249 31.8755 53.6544 31.7579 53.6785 31.6393C53.702 31.5202 53.7201 31.4004 53.7321 31.2802C53.7441 31.1594 53.7501 31.0386 53.7501 30.9173C53.7501 30.7959 53.7441 30.6752 53.7321 30.5544C53.7201 30.4341 53.702 30.3144 53.6785 30.1952C53.6544 30.0766 53.6249 29.9591 53.5894 29.8432C53.5538 29.7272 53.5128 29.6129 53.4658 29.5014C53.4193 29.3892 53.3668 29.2798 53.3094 29.1731C53.2519 29.0659 53.189 28.9624 53.1212 28.8611C53.0529 28.7604 52.9801 28.6634 52.903 28.5697C52.8254 28.476 52.7433 28.3861 52.6569 28.3005C52.5705 28.2149 52.4797 28.1337 52.3857 28.0567C52.2911 27.9798 52.1932 27.9078 52.0915 27.8406C51.9897 27.7729 51.8847 27.7106 51.777 27.6537C51.6693 27.5969 51.5588 27.5449 51.4461 27.4983C51.3329 27.4522 51.2181 27.4111 51.1011 27.3759C50.984 27.3412 50.8659 27.3114 50.7461 27.2881C50.6258 27.2643 50.5055 27.2464 50.3836 27.2345C50.2622 27.2226 50.1402 27.2166 50.0177 27.2166Z" fill="black"/>
<path d="M64.9463 46.6928C64.7215 46.6928 64.4968 46.6819 64.2725 46.6603C64.0483 46.6381 63.8263 46.6056 63.6054 46.5617C63.3844 46.5184 63.1662 46.4642 62.9508 46.3992C62.7353 46.3347 62.5236 46.2594 62.3153 46.1739C62.1075 46.0888 61.904 45.9935 61.7055 45.8879C61.507 45.7828 61.314 45.6679 61.1269 45.5439C60.9399 45.4199 60.7589 45.2872 60.585 45.1458C60.4111 45.0039 60.2443 44.8544 60.0851 44.6962C59.926 44.5386 59.775 44.3734 59.6318 44.2006C59.489 44.0283 59.355 43.849 59.2304 43.6632C59.1051 43.478 58.9892 43.2862 58.8831 43.0896C58.777 42.8924 58.6808 42.6909 58.5949 42.4851C58.5085 42.2787 58.433 42.0686 58.3674 41.8552C58.3023 41.6412 58.2476 41.4251 58.2033 41.2062C58.1596 40.9874 58.1268 40.7664 58.1043 40.5443C58.0825 40.3222 58.0715 40.0996 58.0715 39.8764C58.0715 39.6527 58.0825 39.4301 58.1043 39.208C58.1268 38.9859 58.1596 38.7655 58.2033 38.5467C58.2476 38.3273 58.3023 38.1112 58.3674 37.8977C58.433 37.6838 58.5085 37.4742 58.5949 37.2678C58.6808 37.0614 58.777 36.8599 58.8831 36.6627C58.9892 36.4661 59.1051 36.2749 59.2304 36.0891C59.355 35.9033 59.489 35.7246 59.6318 35.5518C59.775 35.379 59.926 35.2138 60.0851 35.0562C60.2443 34.8985 60.4111 34.7485 60.585 34.6071C60.7589 34.4652 60.9399 34.3325 61.1269 34.2084C61.314 34.0844 61.507 33.9696 61.7055 33.8645C61.904 33.7594 62.1075 33.6641 62.3153 33.5785C62.5236 33.4929 62.7353 33.4182 62.9508 33.3532C63.1662 33.2882 63.3844 33.234 63.6054 33.1907C63.8263 33.1468 64.0483 33.1143 64.2725 33.0926C64.4968 33.0704 64.7215 33.0596 64.9463 33.0596C65.1716 33.0596 65.3964 33.0704 65.6206 33.0926C65.8443 33.1143 66.0668 33.1468 66.2878 33.1907C66.5087 33.234 66.7269 33.2882 66.9424 33.3532C67.1579 33.4182 67.3695 33.4929 67.5773 33.5785C67.7857 33.6641 67.9886 33.7594 68.1876 33.8645C68.3861 33.9696 68.5786 34.0844 68.7662 34.2084C68.9533 34.3325 69.1337 34.4652 69.3082 34.6071C69.4821 34.7485 69.6489 34.8985 69.808 35.0562C69.9672 35.2138 70.1181 35.379 70.2608 35.5518C70.4041 35.7246 70.5381 35.9033 70.6628 36.0891C70.788 36.2749 70.9034 36.4661 71.01 36.6627C71.1161 36.8599 71.2118 37.0614 71.2983 37.2678C71.3847 37.4742 71.4601 37.6838 71.5258 37.8977C71.5908 38.1112 71.6455 38.3273 71.6893 38.5467C71.7336 38.7655 71.7664 38.9859 71.7883 39.208C71.8107 39.4301 71.8216 39.6527 71.8216 39.8764C71.8216 40.0996 71.8107 40.3222 71.7883 40.5443C71.7664 40.7664 71.7336 40.9874 71.6893 41.2062C71.6455 41.4251 71.5908 41.6412 71.5258 41.8552C71.4601 42.0686 71.3847 42.2787 71.2983 42.4851C71.2118 42.6909 71.1161 42.8924 71.01 43.0896C70.9034 43.2862 70.788 43.478 70.6628 43.6632C70.5381 43.849 70.4041 44.0283 70.2608 44.2006C70.1181 44.3734 69.9672 44.5386 69.808 44.6962C69.6489 44.8544 69.4821 45.0039 69.3082 45.1458C69.1337 45.2872 68.9533 45.4199 68.7662 45.5439C68.5786 45.6679 68.3861 45.7828 68.1876 45.8879C67.9886 45.9935 67.7857 46.0888 67.5773 46.1739C67.3695 46.2594 67.1579 46.3347 66.9424 46.3992C66.7269 46.4642 66.5087 46.5184 66.2878 46.5617C66.0668 46.6056 65.8443 46.6381 65.6206 46.6603C65.3964 46.6819 65.1716 46.6928 64.9463 46.6928ZM64.9463 36.1758C64.8243 36.1758 64.7024 36.1817 64.5804 36.1937C64.459 36.2056 64.3382 36.2234 64.2184 36.2467C64.0986 36.2706 63.98 36.2998 63.8629 36.335C63.7459 36.3702 63.6311 36.4109 63.5184 36.4574C63.4052 36.504 63.2947 36.5555 63.187 36.6129C63.0793 36.6698 62.9748 36.7321 62.8731 36.7992C62.7714 36.8669 62.6735 36.939 62.5789 37.0159C62.4843 37.0928 62.394 37.1741 62.3076 37.2597C62.2212 37.3452 62.1392 37.4352 62.0615 37.5289C61.9839 37.6226 61.9111 37.7195 61.8433 37.8203C61.7755 37.921 61.7126 38.025 61.6552 38.1317C61.5972 38.239 61.5453 38.3484 61.4983 38.46C61.4518 38.5721 61.4108 38.6859 61.3752 38.8023C61.3397 38.9182 61.3101 39.0352 61.2861 39.1544C61.262 39.273 61.2445 39.3927 61.2325 39.5135C61.2204 39.6343 61.2144 39.7551 61.2144 39.8764C61.2144 39.9972 61.2204 40.1186 61.2325 40.2388C61.2445 40.3596 61.262 40.4793 61.2861 40.5979C61.3101 40.7171 61.3397 40.8347 61.3752 40.9506C61.4108 41.0665 61.4518 41.1802 61.4983 41.2924C61.5453 41.4045 61.5972 41.5139 61.6552 41.6206C61.7126 41.7273 61.7755 41.8313 61.8433 41.9321C61.9111 42.0328 61.9839 42.1303 62.0615 42.224C62.1392 42.3177 62.2212 42.4071 62.3076 42.4927C62.394 42.5788 62.4843 42.6601 62.5789 42.737C62.6735 42.8139 62.7714 42.8859 62.8731 42.9531C62.9748 43.0203 63.0793 43.0826 63.187 43.14C63.2947 43.1969 63.4052 43.2489 63.5184 43.2949C63.6311 43.3415 63.7459 43.3821 63.8629 43.4173C63.98 43.4525 64.0986 43.4818 64.2184 43.5056C64.3382 43.5294 64.459 43.5468 64.5804 43.5587C64.7024 43.5706 64.8243 43.5766 64.9463 43.5766C65.0688 43.5766 65.1908 43.5706 65.3122 43.5587C65.4341 43.5468 65.555 43.5294 65.6747 43.5056C65.7945 43.4818 65.9132 43.4525 66.0297 43.4173C66.1467 43.3821 66.2621 43.3415 66.3747 43.2949C66.4879 43.2489 66.5979 43.1969 66.7056 43.14C66.8139 43.0826 66.9183 43.0203 67.02 42.9531C67.1218 42.8859 67.2197 42.8139 67.3143 42.737C67.4089 42.6601 67.4991 42.5788 67.5855 42.4927C67.6719 42.4071 67.754 42.3177 67.8316 42.224C67.9093 42.1303 67.982 42.0328 68.0498 41.9321C68.1176 41.8313 68.1805 41.7273 68.2379 41.6206C68.2954 41.5139 68.3479 41.4045 68.3943 41.2924C68.4414 41.1802 68.4824 41.0665 68.5179 40.9506C68.5535 40.8347 68.583 40.7171 68.6071 40.5979C68.6306 40.4793 68.6486 40.3596 68.6607 40.2388C68.6727 40.1186 68.6787 39.9972 68.6787 39.8764C68.6787 39.7551 68.6727 39.6343 68.6607 39.5135C68.6486 39.3927 68.6306 39.273 68.6071 39.1544C68.583 39.0352 68.5535 38.9182 68.5179 38.8023C68.4824 38.6859 68.4414 38.5721 68.3943 38.46C68.3479 38.3484 68.2954 38.239 68.2379 38.1317C68.1805 38.025 68.1176 37.921 68.0498 37.8203C67.982 37.7195 67.9093 37.6226 67.8316 37.5289C67.754 37.4352 67.6719 37.3452 67.5855 37.2597C67.4991 37.1741 67.4089 37.0928 67.3143 37.0159C67.2197 36.939 67.1218 36.8669 67.02 36.7992C66.9183 36.7321 66.8139 36.6698 66.7056 36.6129C66.5979 36.5555 66.4879 36.504 66.3747 36.4574C66.2621 36.4109 66.1467 36.3702 66.0297 36.335C65.9132 36.2998 65.7945 36.2706 65.6747 36.2467C65.555 36.2234 65.4341 36.2056 65.3122 36.1937C65.1908 36.1817 65.0688 36.1758 64.9463 36.1758Z" fill="black"/>
</svg>
