<svg viewBox="0 0 104 105" fill="none" xmlns="http://www.w3.org/2000/svg">
<mask id="mask0_3753_2134" style="mask-type:luminance" maskUnits="userSpaceOnUse" x="8" y="58" width="86" height="37">
<path d="M8.45862 58.94H93.7386V94.6892H8.45862V58.94Z" fill="white"/>
</mask>
<g mask="url(#mask0_3753_2134)">
<path d="M17.3079 66.6127L14.0319 67.6824L11.2439 59.0696L8.5957 59.9419L11.3837 68.541C11.6068 69.2585 12.1084 69.8496 12.7633 70.1876C13.4187 70.525 14.1716 70.5956 14.8964 70.3566L18.1718 69.2869C19.7053 72.1153 21.587 74.7475 23.8035 77.1258L21.782 79.9406C21.3362 80.5454 21.1548 81.2914 21.2664 82.0231C21.378 82.769 21.782 83.4307 22.3817 83.8808L29.1422 88.835C29.7554 89.285 30.4942 89.4682 31.233 89.3414C31.9719 89.2287 32.6132 88.8207 33.0455 88.2153L35.0805 85.4148C37.98 86.8225 41.0464 87.8216 44.1967 88.4128V91.8887C44.1967 93.4369 45.4512 94.7035 46.9847 94.7035H55.348C56.8815 94.7035 58.136 93.4369 58.136 91.8887V88.4128C61.2863 87.8216 64.3532 86.8082 67.2663 85.4006L69.2737 88.2017C69.706 88.8207 70.3468 89.2145 71.0856 89.3414C71.8385 89.4682 72.5774 89.285 73.1765 88.835L79.9375 83.8808C80.5507 83.4307 80.9407 82.769 81.0523 82.0231C81.1639 81.2771 80.983 80.5454 80.5507 79.9406L78.5433 77.1116C80.7457 74.7611 82.6415 72.1296 84.1609 69.2727L87.4369 70.3566C88.1476 70.5814 88.9005 70.525 89.5695 70.1876C90.2384 69.8354 90.7265 69.2585 90.9496 68.541L93.737 59.9282L91.0888 59.0554L88.3009 67.6824L85.0249 66.599C83.7704 66.1768 82.3907 66.7396 81.7077 67.9356C80.2999 70.5535 78.5433 72.9882 76.5082 75.1696C75.5744 76.1688 75.4769 77.6885 76.271 78.7582L78.2925 81.573L71.532 86.5266L69.4969 83.6982C68.7023 82.6142 67.2804 82.2484 66.04 82.8253C63.3495 84.1203 60.5199 85.0489 57.6344 85.598C56.31 85.8512 55.3345 87.0051 55.3345 88.3564V91.8324H46.9706V88.3564C46.9706 87.0051 46.0086 85.837 44.6707 85.598C41.7712 85.0489 38.9415 84.1203 36.2375 82.8111C35.0106 82.2484 33.5887 82.6 32.7941 83.6982L30.7732 86.5124L24.0126 81.5588L26.02 78.7582C26.8282 77.6743 26.7307 76.1546 25.7828 75.1554C23.7477 72.9739 21.9911 70.5392 20.5698 67.8935C19.9003 66.7253 18.5207 66.1626 17.2662 66.5848L17.3079 66.6127Z" fill="black"/>
</g>
<path d="M51.1804 80.6159C64.0466 80.6159 75.2678 72.2985 79.1006 59.9282L76.4384 59.0838C72.9674 70.2718 62.8198 77.8011 51.1663 77.8011C39.5129 77.8011 29.3653 70.286 25.8943 59.0838L23.2321 59.9282C27.0654 72.2985 38.2866 80.6159 51.1523 80.6159H51.1804Z" fill="black"/>
<mask id="mask1_3753_2134" style="mask-type:luminance" maskUnits="userSpaceOnUse" x="7" y="53" width="88" height="4">
<path d="M7.96851 53.76H94.3925V56.7H7.96851V53.76Z" fill="white"/>
</mask>
<g mask="url(#mask1_3753_2134)">
<path d="M7.96851 53.8765H94.3925V56.6912H7.96851V53.8765Z" fill="black"/>
</g>
<mask id="mask2_3753_2134" style="mask-type:luminance" maskUnits="userSpaceOnUse" x="13" y="7" width="76" height="45">
<path d="M13.4507 7.4342H88.8854V51.1H13.4507V7.4342Z" fill="white"/>
</mask>
<g mask="url(#mask2_3753_2134)">
<path d="M88.8166 51.0617V31.3589C88.8166 30.5851 88.1894 29.9518 87.4229 29.9518H76.2711V8.84131C76.2711 8.06749 75.6438 7.4342 74.8774 7.4342H58.1502C57.3837 7.4342 56.7564 8.06749 56.7564 8.84131V22.9151H45.6046V17.2856C45.6046 16.8634 45.4237 16.4691 45.103 16.2017L36.7391 9.16506C36.2235 8.7292 35.4706 8.7292 34.9549 9.16506L26.5916 16.2017C26.2709 16.4691 26.0894 16.8634 26.0894 17.2856V28.5441H14.9381C14.1717 28.5441 13.5444 29.1774 13.5444 29.9518V51.0617H16.3319V31.3589H26.0894V51.0617H28.8774V17.9468L35.847 12.0783L42.8166 17.9468V51.0617H45.6046V25.7294H56.7564V51.0617H59.5439V10.249H73.4837V51.0617H76.2711V32.7665H86.0287V51.0617H88.8166Z" fill="black"/>
</g>
<path d="M62.3318 14.4709H65.1197V17.2857H62.3318V14.4709Z" fill="black"/>
<path d="M67.9077 14.4709H70.6957V17.2857H67.9077V14.4709Z" fill="black"/>
<path d="M62.3318 21.5075H65.1197V24.3223H62.3318V21.5075Z" fill="black"/>
<path d="M67.9077 21.5075H70.6957V24.3223H67.9077V21.5075Z" fill="black"/>
<path d="M62.3318 28.5441H65.1197V31.3589H62.3318V28.5441Z" fill="black"/>
<path d="M67.9077 28.5441H70.6957V31.3589H67.9077V28.5441Z" fill="black"/>
<path d="M31.6653 20.1004H40.0292V22.9152H31.6653V20.1004Z" fill="black"/>
<path d="M31.6653 27.137H40.0292V29.9518H31.6653V27.137Z" fill="black"/>
</svg>
