<svg viewBox="0 0 104 104" fill="none" xmlns="http://www.w3.org/2000/svg">
<path d="M46.9495 92.6943V93.5247C46.9495 94.1834 47.4835 94.7175 48.1428 94.7175C48.8014 94.7175 49.3355 94.1834 49.3355 93.5247V92.6943C49.3355 92.0362 48.8014 91.5016 48.1428 91.5016C47.4835 91.5016 46.9495 92.0357 46.9495 92.6943Z" fill="#2E2D2C"/>
<path d="M55.6909 18.1241C53.3044 16.8426 50.7666 16.1926 48.1466 16.1926C48.1455 16.1926 48.1455 16.1926 48.145 16.1926C45.5255 16.1926 42.9878 16.842 40.6017 18.1225C38.3208 19.3472 36.2776 21.0936 34.528 23.3139C32.7952 25.513 31.4362 28.0686 30.4894 30.9102C29.5133 33.839 29.0182 36.9465 29.0182 40.1483C29.0176 43.3501 29.5122 46.4582 30.4877 49.3864C31.4346 52.2286 32.7925 54.7847 34.5248 56.9839C36.2738 59.2047 38.317 60.9516 40.5974 62.1763C42.9834 63.4573 45.5217 64.1079 48.1417 64.1079C48.1423 64.1079 48.1428 64.1079 48.1434 64.1079C50.7629 64.1079 53.3006 63.4584 55.6866 62.1774C57.9676 60.9532 60.0107 59.2063 61.7603 56.9866C63.4931 54.7874 64.8516 52.2318 65.799 49.3897C66.7751 46.4614 67.2701 43.3534 67.2701 40.1516C67.2707 36.9503 66.7761 33.8422 65.8006 30.9134C64.8538 28.0719 63.4958 25.5157 61.7636 23.316C60.0145 21.0957 57.9714 19.3489 55.6909 18.1241ZM36.3989 55.5089C33.1771 51.4177 31.4031 45.9631 31.4037 40.1489C31.4042 34.3346 33.1793 28.88 36.4016 24.7899C39.1262 21.3314 42.607 19.2151 46.3488 18.701C46.4339 18.9421 46.5129 19.1874 46.5828 19.4344C47.0811 21.1959 47.1082 23.0051 46.6597 24.5288C46.3001 25.7524 46.2491 26.956 46.5081 28.1071C46.6023 28.5274 46.8564 29.3242 47.0205 29.7164C48.1071 32.3131 50.6394 34.4137 52.7231 35.9542C53.7837 36.738 53.8021 37.0354 53.8021 37.0364C53.7924 37.1459 53.4901 37.5321 52.6181 38.0288C51.1464 38.8667 50.1838 39.7475 49.757 40.6461C49.4336 41.3259 49.5587 42.1893 49.5647 42.2278C49.7906 43.6713 50.6529 44.4605 51.2227 44.9827C51.3262 45.0775 51.4627 45.2026 51.5456 45.2931C51.5179 45.3472 51.4795 45.4106 51.4318 45.4799L51.4296 45.4837C50.8371 46.2995 50.1946 46.7166 50.1887 46.7204L50.1735 46.7312C49.9634 46.8834 49.6118 47.1391 49.5441 47.6119C49.4867 48.0149 49.6676 48.4336 50.0175 48.7056L51.1306 49.5706C51.3533 49.7439 51.4616 49.8658 51.5114 49.9335C51.4123 50.0868 51.1653 50.3403 50.9963 50.5131C50.6361 50.8836 50.2282 51.3029 49.9634 51.8413L49.9563 51.8559C49.5235 52.7659 49.6259 53.7604 49.7158 54.6379C49.8848 56.284 49.8252 56.5689 48.6374 56.8436L48.6346 56.8441C48.4142 56.8869 48.1547 56.9134 47.8411 56.9248C47.3444 56.9427 46.3878 56.9021 45.2801 56.8555L45.2617 56.8544C43.8512 56.7948 42.2522 56.7271 41.1894 56.765C39.9187 56.8105 38.8722 56.9914 38.012 57.3148C37.4498 56.7612 36.9108 56.1589 36.3989 55.5089ZM48.1423 61.7229C45.3635 61.7224 42.6828 60.8492 40.2908 59.2036C40.586 59.1684 40.904 59.1446 41.2469 59.1321C42.1666 59.0996 43.6101 59.1608 45.006 59.2204C46.1906 59.2702 47.3086 59.3179 47.9218 59.2962C48.3763 59.28 48.769 59.2377 49.1249 59.1662L49.1509 59.1603C50.615 58.8266 51.5223 58.1316 51.9231 57.0369C52.2541 56.1345 52.1555 55.1709 52.0759 54.3958C52.0157 53.8059 51.9529 53.196 52.0975 52.8775L52.0991 52.8748C52.1988 52.6803 52.4653 52.4062 52.7004 52.1646C53.2713 51.5786 53.9814 50.8489 53.9072 49.7781C53.8569 49.0446 53.4419 48.3773 52.6408 47.7398C52.8878 47.476 53.1305 47.1802 53.3629 46.859L53.3764 46.8401C53.9511 46.0097 54.099 45.2579 53.8287 44.5401C53.6055 43.9481 53.1511 43.5316 52.819 43.2282C52.3738 42.8209 51.9897 42.4688 51.8993 41.8031C51.8976 41.7869 51.8949 41.737 51.8928 41.6839C51.9773 41.4976 52.3391 40.9186 53.7919 40.0909C55.328 39.2161 56.1064 38.2628 56.1709 37.1773C56.2526 35.8047 55.1866 34.8243 54.1336 34.0459C51.6961 32.2454 50.0007 30.4444 49.2294 28.8372C49.0003 28.3595 48.8129 27.716 48.7814 27.4148L48.776 27.3639C48.7289 26.9186 48.6498 26.1739 48.9364 25.1989C49.5094 23.2516 49.4845 20.9755 48.8665 18.7893C48.8481 18.7243 48.8291 18.6599 48.8096 18.5949C57.7341 19.0461 64.8863 28.5436 64.8852 40.1521C64.8836 52.0466 57.3728 61.7234 48.1423 61.7229Z" fill="#2E2D2C"/>
<mask id="mask0_3753_2133" style="mask-type:luminance" maskUnits="userSpaceOnUse" x="24" y="10" width="49" height="89">
<path d="M24.1281 10.816H72.1067V98.6857H24.1281V10.816Z" fill="white"/>
</mask>
<g mask="url(#mask0_3753_2133)">
<path d="M65.1236 19.5276C62.9358 16.8187 60.3829 14.6884 57.5348 13.1966C54.5643 11.6399 51.4059 10.8512 48.1466 10.8506C48.1461 10.8506 48.1456 10.8506 48.145 10.8506C44.8869 10.8506 41.729 11.6393 38.7585 13.1944C35.9104 14.6862 33.357 16.816 31.1686 19.5249C28.996 22.2148 27.2919 25.3429 26.103 28.8221C24.8766 32.4111 24.2548 36.2218 24.2543 40.1478C24.2537 44.0732 24.875 47.8839 26.1008 51.4735C27.2892 54.9531 28.9928 58.0813 31.1649 60.7717C33.0726 63.135 35.2582 65.0569 37.6757 66.4999C37.0826 67.2495 36.7695 68.0436 36.7424 68.8718C36.6812 70.7834 38.1924 72.131 38.9183 72.7789L39.0087 72.8596C41.1337 74.7673 43.7922 78.1706 44.6096 81.1357C45.1897 83.2395 45.2184 86.7094 43.9753 89.72C43.8978 89.9074 43.8144 90.0959 43.7337 90.2785C43.3112 91.2307 42.8324 92.3103 43.0474 93.7527C43.218 94.9005 43.7868 96.083 44.6074 96.9973C45.584 98.0861 46.8261 98.683 48.1093 98.683C48.119 98.683 48.1288 98.683 48.1385 98.683C48.1488 98.683 48.1591 98.683 48.1689 98.683C49.4515 98.683 50.693 98.0861 51.6702 96.9979C52.4914 96.0841 53.0601 94.9011 53.2307 93.7538C53.4458 92.3114 52.9669 91.2318 52.545 90.2796C52.4637 90.097 52.3803 89.9085 52.3029 89.7211C51.0608 86.7105 51.0906 83.2401 51.6707 81.1368C52.4886 78.1717 55.1477 74.7689 57.2726 72.8617L57.3631 72.781C58.0895 72.1332 59.6007 70.7855 59.5395 68.874C59.513 68.0458 59.2004 67.2512 58.6073 66.5015C59.832 65.7697 61.0053 64.909 62.1179 63.9242C64.1312 62.1422 65.8998 59.9961 67.3747 57.5456C68.86 55.0783 70.0143 52.3564 70.8046 49.4574C71.6198 46.4663 72.0331 43.3355 72.0336 40.1526C72.0336 36.2266 71.4129 32.416 70.1865 28.8264C68.9992 25.3467 67.2957 22.2181 65.1236 19.5276ZM54.5329 65.8536C53.9192 66.0931 53.6159 66.7842 53.8547 67.3979C54.0941 68.0117 54.7859 68.315 55.399 68.0761C55.7462 67.9407 56.0902 67.7955 56.4309 67.6417C56.7911 68.0003 57.141 68.4694 57.1562 68.9509C57.1816 69.7477 56.302 70.532 55.776 71.0011C55.7424 71.0309 55.7105 71.0596 55.6801 71.0872C53.2253 73.2902 50.3225 77.0564 49.3719 80.503C48.7344 82.8165 48.5415 86.8568 50.0988 90.6311C50.1882 90.8472 50.2781 91.0498 50.3648 91.2464C50.7244 92.0584 50.985 92.645 50.8718 93.4034C50.6914 94.6167 49.5772 96.2986 48.1694 96.2986C48.1634 96.2986 48.1575 96.2986 48.151 96.2986C48.1477 96.2986 48.1439 96.2986 48.1407 96.2986C48.1401 96.2986 48.1401 96.2986 48.1396 96.2986H48.1391C48.1385 96.2986 48.1385 96.2986 48.1385 96.2986C48.138 96.2986 48.138 96.2986 48.138 96.2986C48.1342 96.2986 48.1309 96.2986 48.1277 96.2986C48.1212 96.2986 48.1152 96.2986 48.1093 96.2986C46.7015 96.2986 45.5873 94.6167 45.4069 93.4028C45.2942 92.645 45.5548 92.0584 45.915 91.2459C46.0016 91.0498 46.0916 90.8467 46.1804 90.6311C47.7388 86.8568 47.547 82.8159 46.9095 80.503C45.9594 77.0564 43.0571 73.2896 40.6029 71.0862C40.5725 71.0585 40.54 71.0298 40.5064 71C39.981 70.5315 39.1014 69.7466 39.1268 68.9498C39.142 68.4683 39.4919 67.9997 39.8521 67.6412C42.4987 68.842 45.2812 69.4503 48.1418 69.4503C48.7999 69.4503 49.334 68.9162 49.3345 68.2576C49.3345 67.5994 48.8004 67.0648 48.1418 67.0648C36.2841 67.0637 26.6381 54.9894 26.6398 40.1489C26.6403 32.9133 28.9083 26.1213 33.0244 21.0248C37.0809 16.0024 42.4505 13.2367 48.1456 13.2367C48.1456 13.2367 48.1466 13.2367 48.1472 13.2367C53.8423 13.2378 59.2124 16.0041 63.2678 21.0275C67.3839 26.1251 69.6497 32.9171 69.6492 40.1532C69.6481 52.0011 63.5733 62.3296 54.5329 65.8536Z" fill="#2E2D2C"/>
</g>
<mask id="mask1_3753_2133" style="mask-type:luminance" maskUnits="userSpaceOnUse" x="74" y="7" width="24" height="66">
<path d="M74.1866 7.78973H97.6213V72.384H74.1866V7.78973Z" fill="white"/>
</mask>
<g mask="url(#mask1_3753_2133)">
<path d="M97.5846 70.8934C97.1551 68.1195 95.9542 61.9792 95.7083 61.1732C95.198 59.4989 94.2214 58.2211 92.9593 57.5765C92 57.0869 90.765 56.8215 89.1845 56.7646C88.1217 56.7267 86.5227 56.7944 85.1122 56.854L85.0933 56.8545C83.9855 56.9016 83.029 56.9417 82.5323 56.9244C82.2186 56.913 81.9592 56.8865 81.7387 56.8437L81.736 56.8426C80.5476 56.5685 80.4885 56.2836 80.6575 54.6375C80.748 53.76 80.8498 52.7655 80.4165 51.8528L80.41 51.8398C80.1451 51.3024 79.7373 50.8832 79.3765 50.5127C79.208 50.3393 78.961 50.0858 78.8619 49.9325C78.9118 49.8648 79.0201 49.743 79.2427 49.5696L80.3564 48.7046C80.7058 48.4332 80.8872 48.014 80.8298 47.611C80.7637 47.15 80.5411 46.9339 80.1793 46.7156L80.169 46.7096C80.1625 46.7058 79.4951 46.331 78.9524 45.4941L78.9443 45.4822C78.8955 45.4113 78.8565 45.3473 78.8289 45.2926C78.9118 45.2022 79.0483 45.0776 79.1517 44.9828C79.5937 44.5782 80.5135 43.7359 80.7892 42.4489C80.8217 42.2972 80.8764 42.0085 80.8737 41.7799C80.8704 41.4961 80.839 41.111 80.618 40.6462C80.1906 39.7476 79.2281 38.8668 77.7569 38.0289C76.8848 37.5322 76.5826 37.1454 76.5728 37.0382C76.5728 37.0355 76.5913 36.7375 77.6513 35.9543C79.8748 34.3109 82.5518 32.0678 83.5208 29.282C83.7017 28.761 83.829 28.3233 83.888 28.0162C84.115 26.8386 84.0587 25.6978 83.7147 24.5289C83.2662 23.0047 83.2933 21.196 83.7916 19.4345C84.823 15.7853 87.4798 12.9297 91.6875 10.9482C92.2888 10.6655 92.9388 10.3947 93.6196 10.1444L93.6272 10.1417C93.6814 10.1287 93.7285 10.1146 93.7713 10.0984C94.2198 9.92721 94.5204 9.50742 94.5378 9.02804C94.5486 8.71008 94.4354 8.40729 94.2187 8.17437C94.0021 7.94146 93.7079 7.80658 93.39 7.79521C93.1917 7.78871 92.9945 7.83096 92.8201 7.91817L92.8098 7.9225C91.1144 8.55083 89.5739 9.30375 88.2311 10.1601C84.7639 12.3712 82.5019 15.2745 81.508 18.7894C80.8899 20.975 80.8655 23.2511 81.4386 25.199C81.7111 26.1258 81.6862 26.8375 81.6179 27.2714C81.5573 27.6549 81.352 28.2951 81.268 28.528C80.3786 30.9888 77.3729 33.2102 76.2413 34.046C75.1878 34.8244 74.1223 35.8048 74.2036 37.1774C74.2686 38.2629 75.0464 39.2162 76.5826 40.091C78.0039 40.9003 78.3804 41.4663 78.4763 41.6716C78.48 41.6792 78.4811 41.6884 78.4806 41.6987C78.4773 41.7729 78.4757 41.7967 78.4746 41.8027C78.3847 42.4684 78.0001 42.8205 77.5549 43.2278C77.2228 43.5317 76.7684 43.9477 76.5452 44.5403C76.2755 45.2569 76.4233 46.0093 76.998 46.8402L77.0116 46.8586C77.244 47.1798 77.4861 47.4755 77.7331 47.7393C76.932 48.3774 76.517 49.0442 76.4667 49.7776C76.3925 50.848 77.1026 51.5776 77.6735 52.1642C77.9086 52.4058 78.1756 52.6799 78.2753 52.8743L78.2769 52.877C78.421 53.1961 78.3587 53.806 78.298 54.3953C78.2184 55.1699 78.1198 56.1335 78.4508 57.036C78.8527 58.1307 79.7589 58.8256 81.223 59.1593L81.2528 59.1658C81.6049 59.2368 81.9976 59.279 82.4526 59.2953C83.0653 59.3169 84.1838 59.2693 85.3684 59.2194C86.7643 59.1598 88.2078 59.0986 89.1276 59.1311C90.3285 59.1739 91.2293 59.357 91.8809 59.689C92.5645 60.0384 93.118 60.8114 93.4393 61.8644C93.6575 62.5799 94.7761 68.5962 95.1628 71.2563C95.2511 71.8646 95.7711 72.3055 96.3729 72.3055C96.413 72.3055 96.4536 72.3034 96.4948 72.2996C96.8328 72.2665 97.134 72.1003 97.3425 71.8316C97.5511 71.5635 97.6372 71.2298 97.5846 70.8934Z" fill="#2E2D2C"/>
</g>
<mask id="mask2_3753_2133" style="mask-type:luminance" maskUnits="userSpaceOnUse" x="5" y="22" width="18" height="20">
<path d="M5.7124 22.048H22.6027V41.7386H5.7124V22.048Z" fill="white"/>
</mask>
<g mask="url(#mask2_3753_2133)">
<path d="M21.6132 30.8138C21.6024 30.8127 20.5017 30.7125 19.2829 30.4454C17.2268 29.9948 16.6699 29.484 16.5486 29.3388C16.4164 29.1801 15.9533 28.4629 15.5536 25.8857C15.3244 24.4064 15.2372 23.075 15.2367 23.062C15.2004 22.4965 14.7324 22.0561 14.1664 22.0534C14.1647 22.0534 14.1631 22.0534 14.162 22.0534C13.5976 22.0534 13.1285 22.49 13.0879 23.0533C13.0874 23.0669 12.9877 24.4362 12.7515 25.9361C12.3323 28.5994 11.8827 29.2169 11.7966 29.3139C11.7137 29.4071 11.1926 29.8967 9.04436 30.3945C7.81044 30.6805 6.69028 30.8159 6.67944 30.817C6.13398 30.882 5.72503 31.3468 5.7299 31.8955C5.73478 32.4442 6.15132 32.9024 6.69786 32.9572C6.70923 32.9582 7.82723 33.0736 9.05574 33.3488C11.1812 33.8244 11.6931 34.3346 11.7744 34.4321C11.8632 34.5388 12.3279 35.2067 12.7504 37.869C12.9872 39.3591 13.0879 40.7079 13.089 40.7209C13.1302 41.2842 13.5992 41.7192 14.162 41.7192C14.1664 41.7192 14.1707 41.7192 14.175 41.7192C14.7438 41.7121 15.2091 41.2647 15.2378 40.6959C15.2383 40.6829 15.3071 39.3515 15.527 37.8755C15.9078 35.3183 16.3877 34.6157 16.5259 34.4614C16.6597 34.3119 17.2566 33.7875 19.3149 33.3309C20.5244 33.0622 21.6078 32.9593 21.6181 32.9582C22.1722 32.9073 22.5958 32.4415 22.5952 31.8847C22.5947 31.3278 22.1679 30.8631 21.6132 30.8138ZM14.9198 33.0259C14.6279 33.3526 14.37 33.8087 14.1442 34.4012C13.8825 33.6754 13.6312 33.2979 13.4292 33.0552C13.0494 32.5986 12.4477 32.2053 11.6092 31.8679C12.4357 31.5402 13.0299 31.1675 13.4064 30.7439C13.6204 30.5029 13.8874 30.1188 14.1631 29.348C14.3803 29.9384 14.6241 30.3934 14.896 30.719C15.2757 31.1734 15.8558 31.5634 16.6499 31.8944C15.8802 32.2167 15.3077 32.5921 14.9198 33.0259Z" fill="#2E2D2C"/>
</g>
<mask id="mask3_3753_2133" style="mask-type:luminance" maskUnits="userSpaceOnUse" x="18" y="7" width="12" height="15">
<path d="M18.0266 7.78973H29.9519V21.632H18.0266V7.78973Z" fill="white"/>
</mask>
<g mask="url(#mask3_3753_2133)">
<path d="M25.0796 20.5173C25.0801 20.5086 25.1251 19.6398 25.2686 18.6794C25.5211 16.9872 25.8368 16.6178 25.8401 16.614C25.9511 16.49 26.4224 16.217 27.4868 15.9803C28.2657 15.8064 28.9666 15.7398 28.9731 15.7392C29.5272 15.6878 29.9508 15.2225 29.9503 14.6657C29.9497 14.1088 29.5245 13.6446 28.9693 13.5948C28.9623 13.5942 28.25 13.5292 27.4656 13.3565C26.1418 13.065 25.8661 12.7509 25.8639 12.7476C25.8515 12.7325 25.5525 12.3587 25.2865 10.6443C25.1365 9.6807 25.0796 8.81133 25.0791 8.80266C25.0433 8.2377 24.5753 7.79732 24.0087 7.79462C24.0071 7.79462 24.006 7.79462 24.0044 7.79462C23.44 7.79462 22.9709 8.23066 22.9303 8.79453C22.9297 8.8032 22.8663 9.66824 22.7185 10.627C22.4633 12.271 22.1968 12.6799 22.1649 12.7238C22.1335 12.753 21.8036 13.0336 20.5117 13.331C19.7252 13.5114 19.0146 13.5975 19.0081 13.5986C18.4626 13.663 18.0536 14.1278 18.0585 14.6765C18.0628 15.2257 18.4805 15.6835 19.0265 15.7387C19.0335 15.7398 19.742 15.8129 20.5247 15.9862C21.8583 16.2825 22.1421 16.5837 22.1432 16.5853C22.1551 16.6 22.439 16.9715 22.712 18.6967C22.8642 19.6615 22.9297 20.5341 22.9303 20.5422C22.9714 21.1055 23.4405 21.5405 24.0038 21.5405C24.0082 21.5405 24.012 21.5405 24.0163 21.5405C24.5851 21.5329 25.0509 21.085 25.0796 20.5173ZM24.2346 15.1786C24.162 15.2599 24.0829 15.359 23.9995 15.4885C23.928 15.3715 23.8603 15.2815 23.7991 15.2079C23.6306 15.0058 23.4151 14.8238 23.1458 14.6581C23.4048 14.5042 23.6128 14.3363 23.7763 14.1522C23.8489 14.0704 23.9264 13.9718 24.006 13.844C24.0786 13.961 24.1479 14.0525 24.2108 14.1278C24.3771 14.3266 24.5899 14.508 24.8526 14.6722C24.6046 14.8265 24.3987 14.995 24.2346 15.1786Z" fill="#2E2D2C"/>
</g>
</svg>
