<svg width="128" height="128" viewBox="0 0 128 128" fill="none" xmlns="http://www.w3.org/2000/svg">
<rect x="4" y="4" width="120" height="120" rx="60" fill="white"/>
<path d="M55.248 41.328V68.976C55.248 72.0053 56.0373 74.3307 57.616 75.952C59.1947 77.5307 61.4133 78.32 64.272 78.32C67.1733 78.32 69.4133 77.5307 70.992 75.952C72.5707 74.3307 73.36 72.0053 73.36 68.976V41.328H82.384V68.912C82.384 72.7093 81.552 75.9307 79.888 78.576C78.2667 81.1787 76.0693 83.1413 73.296 84.464C70.5653 85.7867 67.5147 86.448 64.144 86.448C60.816 86.448 57.7867 85.7867 55.056 84.464C52.368 83.1413 50.2347 81.1787 48.656 78.576C47.0773 75.9307 46.288 72.7093 46.288 68.912V41.328H55.248Z" fill="black"/>
</svg>
